<?xml version="1.0" encoding="utf-8"?>
<!-- Generator: Adobe Illustrator 24.1.1, SVG Export Plug-In . SVG Version: 6.00 Build 0)  -->
<svg version="1.1" id="Layer_1" xmlns="http://www.w3.org/2000/svg" xmlns:xlink="http://www.w3.org/1999/xlink" x="0px" y="0px"
	 viewBox="0 0 55.4 55.6" style="enable-background:new 0 0 55.4 55.6;" xml:space="preserve">
<style type="text/css">
	.st0{fill:#A365FF;}
	.st1{display:none;}
	.st2{display:inline;fill:#F47203;}
</style>
<g id="Layer_1_1_">
	<path class="st0" d="M27.7,9.8c-9.9,0-17.9,8-17.9,17.9v0.2c0,9.9,8,17.9,17.9,17.9s17.9-8,17.9-17.9v-0.2
		C45.6,17.8,37.6,9.8,27.7,9.8z M43.1,27.9c0,8.5-6.9,15.4-15.4,15.4s-15.4-6.9-15.4-15.4v-0.1c0-8.5,6.9-15.4,15.4-15.4
		S43.1,19.3,43.1,27.9L43.1,27.9z"/>
</g>
<g id="Layer_2_1_" class="st1">
	<rect x="12.6" y="46.8" class="st2" width="30.1" height="3.6"/>
</g>
<g id="Layer_3" class="st1">
	<circle class="st2" cx="27.7" cy="48.4" r="5"/>
</g>
</svg>
