<?xml version="1.0" encoding="utf-8"?>
<!-- Generator: Adobe Illustrator 24.0.2, SVG Export Plug-In . SVG Version: 6.00 Build 0)  -->
<svg version="1.1" id="Layer_1" xmlns="http://www.w3.org/2000/svg" xmlns:xlink="http://www.w3.org/1999/xlink" x="0px" y="0px"
	 viewBox="0 0 45.4 45.4" style="enable-background:new 0 0 45.4 45.4;" xml:space="preserve">
<style type="text/css">
	.st0{fill:#F0F0F0;stroke:#DDDDDD;stroke-width:4;stroke-miterlimit:10;}
	.st1{fill:#0052B4;}
	.st2{fill:#D80027;}
</style>
<ellipse class="st0" cx="22.7" cy="22.9" rx="19.5" ry="19"/>
<g transform="translate(0.728 0.661)">
	<path class="st1" d="M6.5,10.3c-1.5,2-2.7,4.3-3.3,6.7h10L6.5,10.3z"/>
	<path class="st1" d="M40.2,17c-0.7-2.4-1.8-4.7-3.3-6.7L30.3,17H40.2z"/>
	<path class="st1" d="M3.2,27c0.7,2.4,1.8,4.7,3.3,6.7l6.7-6.7H3.2z"/>
	<path class="st1" d="M33.4,6.7c-2-1.5-4.3-2.7-6.7-3.3v10L33.4,6.7z"/>
	<path class="st1" d="M10,37.2c2,1.5,4.3,2.7,6.7,3.3v-10L10,37.2z"/>
	<path class="st1" d="M16.7,3.4C14.3,4.1,12,5.2,10,6.7l6.7,6.7V3.4z"/>
	<path class="st1" d="M26.7,40.5c2.4-0.7,4.7-1.8,6.7-3.3l-6.7-6.7V40.5z"/>
	<path class="st1" d="M30.3,27l6.7,6.7c1.5-2,2.7-4.3,3.3-6.7H30.3z"/>
</g>
<g transform="translate(0.067)">
	<path class="st2" d="M41.4,20.1H24.9V3.6c-1.7-0.2-3.3-0.2-5,0v16.5H3.3c-0.2,1.7-0.2,3.3,0,5h16.5v16.5c1.7,0.2,3.3,0.2,5,0V25.1
		h16.5C41.6,23.5,41.6,21.8,41.4,20.1z"/>
	<path class="st2" d="M27.4,27.6L27.4,27.6l8.6,8.6c0.4-0.4,0.8-0.8,1.1-1.2l-7.3-7.3H27.4z"/>
	<path class="st2" d="M17.4,27.6L17.4,27.6l-8.6,8.6c0.4,0.4,0.8,0.8,1.2,1.1l7.3-7.3V27.6z"/>
	<path class="st2" d="M17.4,17.6L17.4,17.6L8.8,9.1C8.4,9.5,8,9.9,7.7,10.3l7.3,7.3C15,17.6,17.4,17.6,17.4,17.6z"/>
	<path class="st2" d="M27.4,17.6L27.4,17.6l8.6-8.6c-0.4-0.4-0.8-0.8-1.2-1.1l-7.3,7.3V17.6z"/>
</g>
</svg>
