<?xml version="1.0" encoding="utf-8"?>
<!-- Generator: Adobe Illustrator 24.0.2, SVG Export Plug-In . SVG Version: 6.00 Build 0)  -->
<svg version="1.1" id="Layer_1" xmlns="http://www.w3.org/2000/svg" xmlns:xlink="http://www.w3.org/1999/xlink" x="0px" y="0px"
	 viewBox="0 0 45.4 45.3" style="enable-background:new 0 0 45.4 45.3;" xml:space="preserve">
<style type="text/css">
	.st0{fill:#F0F0F0;stroke:#DDDDDD;stroke-width:4;stroke-miterlimit:10;}
	.st1{fill:#0052B4;}
	.st2{fill:#D80027;}
	.st3{fill:#F0F0F0;}
</style>
<ellipse class="st0" cx="22.7" cy="22.6" rx="19.2" ry="19"/>
<path class="st1" d="M22.7,41.6c13.1,0.2,22.7-13.7,18-25.9h-36C-0.1,27.9,9.6,41.8,22.7,41.6L22.7,41.6z"/>
<path class="st2" d="M22.7,41.6c8,0,15.2-5,18-12.5h-36C7.5,36.6,14.7,41.6,22.7,41.6z"/>
<path class="st3" d="M8.5,14c-0.1,8.3-1.3,14.8,7.1,16.7c8.4-1.9,7.2-8.4,7.1-16.7H8.5z"/>
<path class="st2" d="M10.1,14c0.1,1.4-0.4,10.3,0.4,11.4h10c0.8-1,0.3-10,0.4-11.4H10.1z"/>
<path class="st3" d="M18.9,20.7h-2.5V19h1.7v-1.7h-1.7v-1.7h-1.7v1.7h-1.7V19h1.7v1.7h-2.5v1.7h2.5V24h1.7v-1.7h2.5L18.9,20.7z"/>
<path class="st1" d="M12.8,27.7c0.9,0.5,1.8,0.9,2.7,1.2c2-0.6,4-1.7,5-3.6c-0.7-0.5-1.5-0.6-2.3-0.5c-0.9-2.3-4.4-2.3-5.3,0
	c-0.8-0.2-1.7,0-2.3,0.5C11.1,26.4,11.9,27.2,12.8,27.7z"/>
</svg>
