<svg xmlns="http://www.w3.org/2000/svg" width="500" height="500"><path d="M295 52.596c-17.325 7.441-31.899 13.922-32.386 14.402-.865.853 22.106 56.002 23.327 56.002.328 0 2.564-4.287 4.967-9.527 2.404-5.24 4.763-9.769 5.242-10.066 1.073-.663 11.09 5.344 17.932 10.752 9.522 7.526 14.022 8.227 30.509 4.752 5.45-1.149 15.642-2.386 22.65-2.75l12.74-.661-6.097-8c-12.761-16.745-33.211-34.993-49.298-43.989-3.622-2.026-6.586-3.878-6.586-4.115 0-.238 2.254-4.924 5.009-10.414 2.755-5.49 4.668-9.967 4.25-9.949-.417.019-14.934 6.122-32.259 13.563m-81.5-2c-13.955 2.47-35.011 9.257-41.494 13.375-1.236.785-1.482 3.952-1.428 18.342.075 19.517.768 21.978 7.476 26.507 4.216 2.847 5.691 2.623 17.614-2.668 9.482-4.207 20.963-7.537 30.082-8.725 2.887-.377 5.255-.964 5.261-1.306.045-2.383-3.199-43.078-3.576-44.871-.56-2.664-2.157-2.739-13.935-.654m-62.075 23.793c-18.955 12.826-36.085 30.383-48.048 49.241l-3.877 6.112-9.372-5.916c-5.154-3.254-9.534-5.754-9.732-5.556-.198.198 4.752 15.631 10.999 34.295 8.089 24.169 11.754 33.854 12.732 33.655 3.167-.647 55.853-19.767 55.863-20.274.005-.305-4.265-2.981-9.49-5.946-5.225-2.965-9.5-5.785-9.5-6.266 0-1.276 5.617-9.348 11.226-16.133 8.438-10.207 9.929-15.446 7.75-27.244-.696-3.771-1.538-14.332-1.871-23.468l-.605-16.611-6.075 4.111M368 128.691c-9.267.703-18.571 2.453-20.796 3.911-2.898 1.899-6.195 7.233-6.2 10.031-.002 1.172 2.739 7.807 6.092 14.742 4.157 8.6 6.925 16.039 8.702 23.39l2.606 10.78 22.839-3.647c12.562-2.006 23.027-3.835 23.257-4.065.772-.772-3.415-18.784-6.532-28.103-1.699-5.077-5.057-13.392-7.465-18.48l-4.376-9.25-6.814.175c-3.747.096-8.838.328-11.313.516m-286 91.21c0 15.665 8.913 50.355 13.374 52.051 1.233.469 9.091 1.414 17.462 2.1 17.319 1.42 21.779.736 24.968-3.827 3.478-4.976 3.43-7.417-.333-17.162-4.032-10.441-7.035-22.537-8.022-32.313l-.682-6.75H82v5.901m279.775 8.901c-14.699 7.534-26.736 13.958-26.75 14.275-.014.318 4.666 2.498 10.399 4.845l10.424 4.267-1.964 4.581c-1.08 2.519-4.505 9.319-7.611 15.11-5.089 9.486-5.647 11.128-5.638 16.575.008 4.899.776 7.751 4.052 15.045 2.224 4.95 6.241 14.734 8.928 21.742 2.687 7.008 5.13 12.746 5.429 12.75.918.013 12.455-15.99 19.123-26.526 3.469-5.481 9.744-16.795 13.944-25.142l7.637-15.176 10.612 4.834c7.458 3.397 10.374 4.341 9.814 3.176-.439-.912-7.52-15.709-15.736-32.882-8.216-17.172-15.163-31.212-15.438-31.198-.275.014-12.526 6.189-27.225 13.724M104.776 298.28c8.201 15.674 14.479 25.927 25.404 41.491 4.352 6.199 7.648 11.699 7.325 12.221-.323.522-4.406 3.724-9.075 7.116-4.668 3.392-8.323 6.332-8.122 6.533.581.581 65.787 9.598 66.227 9.158.769-.769 8.76-63.838 8.163-64.434-.332-.332-4.498 2.436-9.257 6.153-4.759 3.716-8.943 6.336-9.297 5.821-11.708-17.004-18.429-26.282-20.313-28.041-4.714-4.402-9.474-5.525-27.038-6.379-9.189-.447-18.414-1.082-20.5-1.412-2.086-.331-5.31-.835-7.165-1.122l-3.372-.521 7.02 13.416m215.031 12.768c-.931.543-6.546 6.942-12.477 14.22-5.932 7.277-14.286 17.142-18.565 21.922l-7.781 8.69 9.758 9.341c5.367 5.138 13.176 12.599 17.355 16.581l7.596 7.239 9.469-10.771c18.999-21.609 24.943-29.364 24.23-31.61-.364-1.147-3.542-8.627-7.062-16.622-7.436-16.889-10.062-20.055-16.596-20.008-2.329.017-4.996.475-5.927 1.018m-117.129 81.276L185.856 408.5l8.926 9.5c7.683 8.177 34.762 33.789 46.478 43.961l3.761 3.264 5.739-4.849c9.948-8.404 27.075-25.402 39.01-38.714l11.51-12.838-8.39-8.486c-4.614-4.666-12.271-12.049-17.015-16.405l-8.625-7.921-11.263 12.591-11.264 12.592-12.611-12.524-12.612-12.524-16.822 16.177" fill="undefined" fill-rule="evenodd"/></svg>