<svg xmlns="http://www.w3.org/2000/svg" width="500" height="500"><path d="M155.276 248.75c-51.82 114.262-94.506 208.542-94.858 209.51-.606 1.666 1.801 1.746 45.111 1.5l45.75-.26 49.022-115.25C227.263 280.863 249.624 229 249.993 229c.368 0 22.716 51.862 49.663 115.25l48.993 115.25 45.786.26c43.345.246 45.753.166 45.147-1.5C437.844 453.476 250.435 41 250 41c-.278 0-42.904 93.488-94.724 207.75m84.883 110.559c-5.037 12.82-9.159 23.62-9.159 24 0 .38 8.823.691 19.607.691 15.283 0 19.498-.276 19.112-1.25-7.66-19.343-19.227-46.75-19.73-46.75-.369 0-4.792 10.489-9.83 23.309M209 439.037c-4.125 10.44-7.65 19.428-7.833 19.973-.217.645 16.963.99 49.25.99 27.271 0 49.583-.128 49.583-.285 0-.156-3.514-9.044-7.81-19.75l-7.81-19.465-33.94-.223-33.94-.223-7.5 18.983" fill="undefined" fill-rule="evenodd"/></svg>