<svg xmlns="http://www.w3.org/2000/svg" width="435.442" height="480" viewBox="0 0 435.442 480"><g transform="translate(-23.764)"><g transform="translate(252.146 374.179)"><path d="M275.2,400.77a7.3,7.3,0,0,0-7.3,7.3v15.084a7.3,7.3,0,1,0,14.6,0V408.069A7.3,7.3,0,0,0,275.2,400.77Z" transform="translate(-267.901 -400.77)" fill="#a365ff"/></g><g transform="translate(115.391 316.901)"><path d="M181.52,342.376H132.89a10.248,10.248,0,0,0-10.237,10.237V414.04h0a10.249,10.249,0,0,0,10.237,10.237H181.52a10.248,10.248,0,0,0,10.237-10.237V352.613A10.249,10.249,0,0,0,181.52,342.376Zm-4.36,67.3H137.25V356.973h39.91Z" transform="translate(-122.652 -342.376)" fill="#a365ff"/></g><g transform="translate(298.472 316.901)"><path d="M379.11,342.376H330.478a10.248,10.248,0,0,0-10.236,10.237V414.04a10.248,10.248,0,0,0,10.236,10.237H379.11a10.248,10.248,0,0,0,10.236-10.237V352.613A10.248,10.248,0,0,0,379.11,342.376Zm-4.361,67.3H334.84V356.973h39.909Z" transform="translate(-320.242 -342.376)" fill="#a365ff"/></g><g transform="translate(115.391 188.346)"><path d="M181.52,203.487H132.89a10.248,10.248,0,0,0-10.237,10.237v61.427h0a10.249,10.249,0,0,0,10.237,10.237H181.52a10.248,10.248,0,0,0,10.237-10.237V213.724A10.249,10.249,0,0,0,181.52,203.487Zm-4.36,67.3H137.25V218.084h39.91Z" transform="translate(-122.652 -203.487)" fill="#a365ff"/></g><g transform="translate(206.931 188.346)"><path d="M280.315,203.487H231.684a10.248,10.248,0,0,0-10.237,10.237v61.427a10.249,10.249,0,0,0,10.237,10.237h48.631a10.248,10.248,0,0,0,10.237-10.237V213.724A10.248,10.248,0,0,0,280.315,203.487Zm-4.36,67.3h-39.91V218.084h39.91Z" transform="translate(-221.447 -203.487)" fill="#a365ff"/></g><g transform="translate(298.472 188.346)"><path d="M379.11,203.487H330.478a10.248,10.248,0,0,0-10.236,10.237v61.427a10.248,10.248,0,0,0,10.236,10.237H379.11a10.248,10.248,0,0,0,10.236-10.237V213.724A10.248,10.248,0,0,0,379.11,203.487Zm-4.361,67.3H334.84V218.084h39.909Z" transform="translate(-320.242 -203.487)" fill="#a365ff"/></g><g transform="translate(115.392 75.792)"><path d="M181.521,75.792H132.89a10.248,10.248,0,0,0-10.237,10.237v61.427a10.248,10.248,0,0,0,10.237,10.237h48.631a10.248,10.248,0,0,0,10.237-10.237V86.029A10.249,10.249,0,0,0,181.521,75.792Zm-4.361,67.3H137.25V90.389h39.91Z" transform="translate(-122.653 -75.792)" fill="#a365ff"/></g><g transform="translate(206.931 75.792)"><path d="M280.315,75.792H231.684a10.248,10.248,0,0,0-10.237,10.237v61.427a10.249,10.249,0,0,0,10.237,10.237h48.631a10.248,10.248,0,0,0,10.237-10.237V86.029A10.248,10.248,0,0,0,280.315,75.792Zm-4.36,67.3h-39.91V90.389h39.91Z" transform="translate(-221.447 -75.792)" fill="#a365ff"/></g><g transform="translate(298.473 75.792)"><path d="M379.111,75.792H330.479a10.248,10.248,0,0,0-10.236,10.237v61.427a10.247,10.247,0,0,0,10.236,10.237h48.632a10.248,10.248,0,0,0,10.236-10.237V86.029A10.248,10.248,0,0,0,379.111,75.792Zm-4.362,67.3H334.84V90.389h39.909Z" transform="translate(-320.243 -75.792)" fill="#a365ff"/></g><g transform="translate(23.764)"><path d="M380.5,442.593h49.372a41.784,41.784,0,0,0-30.258-36.952l-.23-364.388h8.3a8.9,8.9,0,0,0,8.893-8.892V8.892A8.9,8.9,0,0,0,407.687,0H300.062a6.843,6.843,0,1,0,0,13.686H402.894V27.568H80.076V13.686H317.267a6.843,6.843,0,1,0,0-13.686H75.282A8.9,8.9,0,0,0,66.39,8.892V32.361a8.9,8.9,0,0,0,8.892,8.892h8.035l.145,230.124a6.842,6.842,0,0,0,6.843,6.838h0a6.843,6.843,0,0,0,6.838-6.847L97,41.253H385.7l.229,362.881-.067.006c-.238.013-.474.041-.712.059-.563.042-1.127.084-1.685.148-.3.035-.6.085-.908.127-.487.067-.974.131-1.456.216-.327.056-.651.128-.976.191-.451.089-.9.177-1.349.281-.337.078-.667.168-1,.254-.43.112-.86.222-1.284.347-.336.1-.668.207-1,.314-.415.133-.83.268-1.24.414-.332.118-.66.245-.989.371-.4.156-.8.313-1.2.481-.327.138-.651.281-.973.427q-.586.264-1.163.547-.477.233-.948.48-.571.3-1.131.615c-.307.173-.613.349-.916.53-.37.221-.735.45-1.1.683-.3.189-.59.379-.88.575-.361.245-.715.5-1.069.755-.28.2-.562.4-.837.615-.352.269-.7.549-1.042.831-.264.216-.531.427-.789.65-.347.3-.683.607-1.021.916-.244.223-.49.441-.728.67-.348.334-.682.682-1.019,1.029-.215.221-.435.436-.645.663-.365.393-.714.8-1.065,1.209-.169.2-.345.385-.511.586q-.764.923-1.481,1.894c-.782.162-1.553.357-2.315.573-.251.071-.5.156-.745.232-.508.158-1.013.319-1.511.5-.286.1-.566.216-.848.327-.454.178-.9.364-1.348.562-.286.127-.568.257-.849.392-.438.209-.868.429-1.295.657-.266.142-.533.281-.795.43-.454.258-.9.532-1.337.809-.217.138-.441.268-.655.411-.643.427-1.274.871-1.885,1.341-.039.03-.076.064-.114.094q-.861.667-1.674,1.387c-.2.173-.383.357-.575.534-.378.35-.752.7-1.113,1.069-.211.214-.414.434-.62.653q-.494.527-.966,1.074c-.2.233-.4.468-.591.707-.307.377-.6.762-.892,1.152-.177.238-.355.474-.526.717-.3.434-.593.878-.878,1.327-.133.211-.274.416-.4.629-.4.667-.787,1.346-1.143,2.043-.025.05-.047.1-.072.152q-.492.973-.922,1.983c-.1.243-.193.491-.291.736-.144.361-.3.717-.428,1.085H285.6V332.611a11.647,11.647,0,0,0-11.634-11.634H209a11.647,11.647,0,0,0-11.634,11.634V442.594H153.015c-.132-.367-.285-.725-.429-1.087-.1-.245-.187-.493-.291-.734q-.425-1-.911-1.961c-.029-.057-.053-.117-.083-.175-.355-.695-.739-1.372-1.14-2.037-.131-.218-.275-.427-.412-.643-.282-.444-.568-.884-.869-1.313-.173-.247-.353-.485-.532-.727-.288-.386-.58-.768-.884-1.142q-.294-.361-.6-.714c-.312-.364-.633-.718-.96-1.068-.206-.221-.412-.442-.624-.658-.36-.365-.731-.715-1.107-1.063-.194-.179-.382-.365-.58-.539q-.816-.72-1.675-1.387c-.038-.03-.074-.063-.113-.093-.612-.47-1.243-.914-1.887-1.342-.213-.142-.433-.27-.649-.407-.443-.279-.888-.554-1.343-.813-.261-.148-.525-.287-.789-.427-.429-.229-.862-.45-1.3-.661q-.419-.2-.843-.389c-.447-.2-.9-.385-1.357-.565-.279-.11-.558-.221-.841-.323-.5-.181-1.009-.344-1.52-.5-.247-.076-.489-.16-.739-.231-.762-.216-1.533-.412-2.316-.574q-.714-.97-1.478-1.889c-.167-.2-.343-.391-.513-.589-.348-.4-.7-.81-1.058-1.2-.213-.23-.436-.448-.653-.672-.333-.342-.664-.686-1.007-1.016-.24-.231-.488-.45-.732-.675-.335-.307-.669-.615-1.013-.91-.26-.223-.526-.437-.791-.652-.342-.279-.684-.557-1.034-.825-.277-.211-.558-.414-.838-.619-.352-.255-.7-.507-1.064-.751-.29-.2-.583-.386-.877-.576-.363-.232-.728-.461-1.1-.682-.3-.18-.6-.356-.911-.529q-.561-.316-1.132-.615c-.311-.163-.623-.323-.939-.479-.386-.19-.776-.371-1.168-.549-.319-.144-.638-.289-.961-.426-.4-.17-.8-.328-1.21-.485-.323-.125-.646-.251-.972-.367-.416-.149-.838-.285-1.26-.421-.324-.1-.647-.213-.974-.309-.437-.129-.879-.242-1.322-.357-.32-.083-.637-.172-.958-.247-.472-.111-.952-.2-1.429-.3-.3-.059-.592-.126-.89-.178-.566-.1-1.139-.177-1.712-.253-.216-.028-.428-.068-.645-.093q-1.169-.136-2.35-.209l-.056-141.4c0-3.778-3.066-4.838-6.843-4.838,0,0,0-2,0-2a6.843,6.843,0,0,0-6.838,6.847l.057,142.832A41.783,41.783,0,0,0,53.095,442.6H42.466a18.7,18.7,0,1,0,0,37.4H440.5a18.723,18.723,0,0,0,18.7-18.7C459.206,450.983,390.816,442.593,380.5,442.593Zm-34.715-.794c.012-.016.022-.032.035-.047.287-.371.592-.729.9-1.079.079-.089.159-.176.24-.264.3-.33.618-.653.943-.961l.05-.049c.339-.319.694-.622,1.055-.916.095-.077.19-.154.286-.229.353-.277.713-.547,1.083-.8.019-.013.037-.027.055-.039.385-.262.785-.5,1.189-.739.106-.062.214-.122.322-.182.4-.221.8-.433,1.216-.626l.048-.024c.427-.2.863-.376,1.3-.544.115-.044.232-.087.349-.128.441-.158.885-.306,1.339-.433a.268.268,0,0,1,.029-.008c.461-.128.932-.234,1.405-.329.12-.024.241-.047.362-.069.479-.087.963-.163,1.453-.215a6.845,6.845,0,0,0,5.085-3.175A27.886,27.886,0,0,1,388.3,417.755c.562,0,1.14.021,1.728.059l.09.007c.586.04,1.181.1,1.785.175.026,0,.052,0,.078.006a28.074,28.074,0,0,1,24.158,24.593h-70.92C345.409,442.326,345.591,442.056,345.787,441.8ZM271.918,334.661V442.593H211.05V334.661ZM91.194,417.975l.03,0c.583-.071,1.145-.123,1.7-.158l.1-.008c.558-.035,1.1-.053,1.645-.053a27.889,27.889,0,0,1,23.767,13.187,6.924,6.924,0,0,0,5.085,3.175h0c.488.052.97.127,1.447.214.122.022.243.045.364.069.473.095.944.2,1.405.329l.03.009c.454.127.9.275,1.339.433.115.041.231.083.345.127.442.168.881.346,1.308.545.013.006.025.013.038.02.418.2.825.409,1.226.632.106.058.211.118.315.178.406.235.806.479,1.194.742.015.009.028.021.043.031.376.256.74.529,1.1.809.094.074.187.148.279.224.363.3.718.6,1.058.92l.043.042c.328.309.642.634.948.966.082.088.162.176.242.265.311.349.614.705.9,1.075.015.02.029.04.044.059.195.254.374.521.557.785H66.825A28.071,28.071,0,0,1,91.194,417.975ZM440.5,466.314H42.466a5.017,5.017,0,1,1,0-10.035H440.5a5.017,5.017,0,1,1,0,10.035Z" transform="translate(-23.764)" fill="#a365ff"/></g></g></svg>