<svg xmlns="http://www.w3.org/2000/svg" width="448.529" height="480" viewBox="0 0 448.529 480"><g transform="translate(-29.437 -16)"><path d="M231.331,258.058A28.342,28.342,0,0,0,247.9,221.611l-14.981,5.618a12.309,12.309,0,1,1-23.051,8.644l-14.981,5.618a28.307,28.307,0,0,0,36.447,16.567Z" transform="translate(-0.85 -1.008)" fill="#a365ff"/><path d="M477.966,95.639V39.892A7.964,7.964,0,0,0,470,31.928H413.419l.786-7.084A7.964,7.964,0,0,0,406.291,16H382.4a7.964,7.964,0,0,0-7.555,5.445L360.731,63.783H328.583a32.081,32.081,0,0,0-22.525,9.331l-8,8a117.748,117.748,0,0,0-58.171-43.1,120.264,120.264,0,0,0-80.142,1.72,116.392,116.392,0,0,0-56.178,44.613,121.655,121.655,0,0,0-20.464,67.837,124.6,124.6,0,0,0,8,43.878l3.256,8.684a33.234,33.234,0,0,0,26.022,61.093l7.5-2.812a103.645,103.645,0,0,0,63.382,51.557v6.272l-17.908,5.973-55.927,10.163a64.02,64.02,0,0,0-48.258,40.317L29.437,489.579l15.058,5.189,25.028-72.611H124.5L101.743,491l15.122,5,10.69-32.338v30.171h15.928V414.194a7.964,7.964,0,0,0-7.964-7.964H75.336l8.75-23.335a48.011,48.011,0,0,1,36.194-30.234l51.068-9.285,3.257,5.428a69.066,69.066,0,0,0,127.541-25.379l54.379-33.987,38.915,51.886-50.083,42.927a7.964,7.964,0,0,0-2.777,6.051v103.53h15.928V393.966l52.967-45.4c.088-.075.165-.157.25-.236.065-.061.134-.116.2-.179l44.13-44.13a75.34,75.34,0,0,0,21.913-52.907,73.957,73.957,0,0,0-.579-9.28L462.038,111.567l12.742-9.557A7.964,7.964,0,0,0,477.966,95.639ZM411.651,47.856h29.538l-7.964,15.928H409.882ZM388.139,31.928h9.253l-3.536,31.856H377.521ZM116.814,93.194a100.553,100.553,0,0,1,48.529-38.548c44.262-16.6,92.269-2.168,119.275,35.033a23.024,23.024,0,0,0-2.361,3.14,22.732,22.732,0,0,0,17.877,34.624l-6.5,2.437c-17.449-6.03-44.38-26.6-53.119-40.73-.058-.095-.118-.187-.18-.279-.372-.613-.7-1.195-.983-1.771a7.964,7.964,0,0,0-14.59.8c-.224.605-.457,1.21-.707,1.814l-.043.1c-5.338,13.421-29.147,61.487-111.38,116.52-.057.038-.113.078-.169.116l-.083.055-.281.188-6.077-16.216a108.726,108.726,0,0,1-6.989-38.289,105.786,105.786,0,0,1,17.779-58.988ZM108.72,252.03A17.3,17.3,0,0,1,100,219.778l.664,1.771a7.964,7.964,0,0,0,11.614,3.994c.031-.019.224-.137.553-.342l8.7,23.195S110.79,252.03,108.72,252.03Zm28.751-6.5-10-26.656-.652-1.739-.077-.206-.017-.046c-.041-.115-.083-.231-.128-.346s-.084-.235-.126-.354a491.324,491.324,0,0,0,54.276-43.248c24.539-22.8,42.36-45.051,53.124-66.316,13.14,14.88,35.738,31.224,52.88,37.7,1.811,3.348,15.758,39.688,15.758,39.688a88.067,88.067,0,1,1-165.04,61.521Zm166.66-102.574,6.523-2.447q.149-.049.3-.1l.044-.016a17.306,17.306,0,0,1,12.032,32.453l-6.74,2.528Zm-70.3,223.456a53.157,53.157,0,0,1-45.571-25.8l-.987-1.644,14.473-4.825a7.964,7.964,0,0,0,5.445-7.555v-8.76a103.278,103.278,0,0,0,49.259-5.852,105.087,105.087,0,0,0,14.452-6.717v13.365a7.964,7.964,0,0,0,7.964,7.964h6.408a53.457,53.457,0,0,1-51.444,39.819Zm119.686-93.874-61.007,38.127h-5.679V294.256a104.1,104.1,0,0,0,34.289-103.693l7.5-2.811a33.227,33.227,0,0,0,4.3-60.258h25.158l16.768,50.3a7.964,7.964,0,0,0,7.55,5.445h7.964v52.449Zm16.038-160.97H391.2l6.194,55.747h-9.258Zm75.232,181.191L407.153,330.4l-38.127-50.84,34.936-34.935a7.964,7.964,0,0,0,2.329-5.631V183.241a7.964,7.964,0,0,0,7.915-8.843l-5.211-46.9h29.152a7.964,7.964,0,0,0,4.778-1.593l3.584-2.688,15.075,120.61a57.927,57.927,0,0,1,.455,7.29A59.3,59.3,0,0,1,444.789,292.758Zm17.249-201.1-26.547,19.91H407.22l-.983-8.843a7.964,7.964,0,0,0-7.91-7.085H358.508a7.964,7.964,0,0,0-7.555,10.482l1.815,5.445H301.6a6.808,6.808,0,0,1-5.808-10.359,6.953,6.953,0,0,1,2.832-2.562l7.69-3.846a7.964,7.964,0,0,0,2.074-1.493l8.93-8.929a16.035,16.035,0,0,1,11.266-4.666H462.038Zm0-27.874H451.032L459,47.856h3.042Z" fill="#a365ff"/><circle cx="13" cy="13" r="13" transform="translate(152.447 201.151)" fill="#a365ff"/><circle cx="13" cy="13" r="13" transform="translate(237.04 168.806)" fill="#a365ff"/></g></svg>