<svg xmlns="http://www.w3.org/2000/svg" width="512" height="494.319" viewBox="0 0 512 494.319"><g transform="translate(0 -0.496)"><path d="M423.729,53.462a26.484,26.484,0,0,0-26.483-26.483H370.763a26.483,26.483,0,1,0-52.966,0H282.486a26.483,26.483,0,1,0-52.966,0H194.209a26.483,26.483,0,1,0-52.966,0H105.932a26.483,26.483,0,1,0-52.966,0H26.483A26.484,26.484,0,0,0,0,53.462V424.225a8.828,8.828,0,0,0,8.828,8.828H35.311v26.483a8.828,8.828,0,0,0,8.828,8.828H276.6c.116,0,.2-.06.31-.06A149.957,149.957,0,1,0,423.729,208.175ZM335.452,26.979a8.828,8.828,0,0,1,17.655,0V53.462H335.452Zm-88.277,0a8.828,8.828,0,0,1,17.655,0V53.462H247.175Zm-88.277,0a8.828,8.828,0,0,1,17.655,0V53.462H158.9Zm-88.277,0a8.828,8.828,0,0,1,17.655,0V53.462H70.622ZM17.655,53.462a8.828,8.828,0,0,1,8.828-8.828H52.966V62.29a8.828,8.828,0,0,0,8.828,8.828H97.1a8.828,8.828,0,0,0,8.828-8.828V44.635h35.311V62.29a8.828,8.828,0,0,0,8.828,8.828h35.311a8.828,8.828,0,0,0,8.828-8.828V44.635H229.52V62.29a8.828,8.828,0,0,0,8.828,8.828h35.311a8.828,8.828,0,0,0,8.828-8.828V44.635H317.8V62.29a8.828,8.828,0,0,0,8.828,8.828h35.311a8.828,8.828,0,0,0,8.828-8.828V44.635h26.483a8.828,8.828,0,0,1,8.828,8.828V97.6H17.655ZM52.966,433.053H240.848a150.1,150.1,0,0,0,14.9,17.655H52.966Zm441.385-88.277A132.415,132.415,0,1,1,361.936,212.361,132.417,132.417,0,0,1,494.351,344.776ZM361.936,194.705A149.969,149.969,0,0,0,229.59,415.4H17.655V115.256H406.074v86.1a149.628,149.628,0,0,0-44.138-6.647Zm0,0" fill="#a365ff"/><path d="M74.483,136.5a26.483,26.483,0,1,0,26.483,26.483A26.484,26.484,0,0,0,74.483,136.5Zm0,35.311a8.828,8.828,0,1,1,8.828-8.828A8.828,8.828,0,0,1,74.483,171.807Zm0,0" transform="translate(4.966 14.071)" fill="#a365ff"/><path d="M154.483,136.5a26.483,26.483,0,1,0,26.483,26.483A26.484,26.484,0,0,0,154.483,136.5Zm0,35.311a8.828,8.828,0,1,1,8.828-8.828A8.828,8.828,0,0,1,154.483,171.807Zm0,0" transform="translate(13.243 14.071)" fill="#a365ff"/><path d="M234.483,136.5a26.483,26.483,0,1,0,26.483,26.483A26.484,26.484,0,0,0,234.483,136.5Zm0,35.311a8.828,8.828,0,1,1,8.828-8.828A8.828,8.828,0,0,1,234.483,171.807Zm0,0" transform="translate(21.52 14.071)" fill="#a365ff"/><path d="M74.483,200.5a26.483,26.483,0,1,0,26.483,26.483A26.484,26.484,0,0,0,74.483,200.5Zm0,35.311a8.828,8.828,0,1,1,8.828-8.828A8.828,8.828,0,0,1,74.483,235.807Zm0,0" transform="translate(4.966 20.692)" fill="#a365ff"/><path d="M154.483,200.5a26.483,26.483,0,1,0,26.483,26.483A26.484,26.484,0,0,0,154.483,200.5Zm0,35.311a8.828,8.828,0,1,1,8.828-8.828A8.828,8.828,0,0,1,154.483,235.807Zm0,0" transform="translate(13.243 20.692)" fill="#a365ff"/><path d="M74.483,264.5a26.483,26.483,0,1,0,26.483,26.483A26.484,26.484,0,0,0,74.483,264.5Zm0,35.311a8.828,8.828,0,1,1,8.828-8.828A8.828,8.828,0,0,1,74.483,299.807Zm0,0" transform="translate(4.966 27.314)" fill="#a365ff"/><path d="M154.483,264.5a26.483,26.483,0,1,0,26.483,26.483A26.484,26.484,0,0,0,154.483,264.5Zm0,35.311a8.828,8.828,0,1,1,8.828-8.828A8.828,8.828,0,0,1,154.483,299.807Zm0,0" transform="translate(13.243 27.314)" fill="#a365ff"/><path d="M224,323.256A114.76,114.76,0,1,0,338.76,208.5,114.76,114.76,0,0,0,224,323.256Zm211.865,0H418.209a8.828,8.828,0,0,0,0,17.655h15.97a97.225,97.225,0,0,1-86.592,79V402.705a8.828,8.828,0,1,0-17.655,0v17.207a97.225,97.225,0,0,1-86.592-79h15.97a8.828,8.828,0,1,0,0-17.655H241.655A97.188,97.188,0,0,1,329.932,226.6v17.2a8.828,8.828,0,1,0,17.655,0V226.6A97.188,97.188,0,0,1,435.865,323.256Zm0,0" transform="translate(23.176 21.52)" fill="#a365ff"/><path d="M332.38,312.4l-12.207-18.315a8.829,8.829,0,1,0-14.69,9.8l17.655,26.483a8.856,8.856,0,0,0,6.073,3.832,7.853,7.853,0,0,0,1.272.095,8.813,8.813,0,0,0,5.651-2.039L389.1,288.113a8.833,8.833,0,0,0-11.3-13.578Zm0,0" transform="translate(31.452 28.141)" fill="#a365ff"/></g></svg>