<svg xmlns="http://www.w3.org/2000/svg" width="448" height="480" viewBox="0 0 448 480"><g transform="translate(-32 -16)"><path d="M56,264H456a8,8,0,0,0,8-8V224a8,8,0,0,0-8-8H440V24a8,8,0,0,0-8-8H80a8,8,0,0,0-8,8V216H56a8,8,0,0,0-8,8v32a8,8,0,0,0,8,8ZM88,32H424V216H216V184a8,8,0,0,0-8-8H144a8,8,0,0,0-8,8v32H88ZM200,216H152V192h48ZM64,232H448v16H64Z" fill="#a365ff"/><rect width="32" height="16" transform="translate(160 312)" fill="#a365ff"/><rect width="32" height="16" transform="translate(320 312)" fill="#a365ff"/><path d="M472,296H386.753l-3.089-10.3A8.007,8.007,0,0,0,376,280H296a8.007,8.007,0,0,0-7.664,5.7L285.247,296H226.753l-3.089-10.3A8.007,8.007,0,0,0,216,280H136a8.007,8.007,0,0,0-7.664,5.7L125.247,296H40a8,8,0,0,0-8,8v32a8,8,0,0,0,8,8h8V488a8,8,0,0,0,8,8H72a8,8,0,0,0,7.953-7.166L95.2,344h15.647l-6.511,21.7A8.129,8.129,0,0,0,104,368v24a23.951,23.951,0,0,0,16.631,22.722l7.408,74.075A8,8,0,0,0,136,496h16a8,8,0,0,0,7.961-7.2l7.28-72.8H184.76l7.28,72.8A8,8,0,0,0,200,496h16a8,8,0,0,0,7.961-7.2l7.407-74.075A23.95,23.95,0,0,0,248,392V368a8.129,8.129,0,0,0-.336-2.3L241.153,344h29.693l-6.511,21.7A8.128,8.128,0,0,0,264,368v24a23.951,23.951,0,0,0,16.631,22.722l7.408,74.075A8,8,0,0,0,296,496h16a8,8,0,0,0,7.961-7.2l7.28-72.8H344.76l7.28,72.8A8,8,0,0,0,360,496h16a8,8,0,0,0,7.961-7.2l7.407-74.075A23.95,23.95,0,0,0,408,392V368a8.128,8.128,0,0,0-.336-2.3L401.153,344H416.8l15.246,144.836A8,8,0,0,0,440,496h16a8,8,0,0,0,8-8V344h8a8,8,0,0,0,8-8V304a8,8,0,0,0-8-8ZM64.8,480H64V344H79.117ZM48,328V312h72.447l-4.8,16Zm96.758,152h-1.516l-6.4-64h14.318Zm62.484,0-6.4-64h14.318l-6.4,64ZM232,392a8.005,8.005,0,0,1-8,8H128a8.005,8.005,0,0,1-8-8V369.172L141.953,296h68.094L232,369.172Zm4.353-64-4.8-16h48.894l-4.8,16Zm68.4,152h-1.516l-6.4-64h14.318Zm62.484,0-6.4-64h14.318l-6.4,64ZM392,392a8.005,8.005,0,0,1-8,8H288a8.005,8.005,0,0,1-8-8V369.172L301.953,296h68.094L392,369.172Zm56,88h-.8l-14.32-136H448Zm16-152H396.353l-4.8-16H464Z" fill="#a365ff"/></g></svg>