<?xml version="1.0" encoding="utf-8"?>
<!-- Generator: Adobe Illustrator 25.0.1, SVG Export Plug-In . SVG Version: 6.00 Build 0)  -->
<svg version="1.1" id="Layer_1" xmlns="http://www.w3.org/2000/svg" xmlns:xlink="http://www.w3.org/1999/xlink" x="0px" y="0px"
	 viewBox="0 0 59.8 65.2" style="enable-background:new 0 0 59.8 65.2;" xml:space="preserve">
<style type="text/css">
	.st0{fill:#004C93;}
	.st1{fill:#FFE000;}
</style>
<g id="A" transform="translate(0 0)">
	<path id="Exclusion_3" class="st0" d="M44.1,64.3h-7.3l0,0H44.1L29.3,29.2l-14.8,35h7.3l0,0h-7.3l0,0H0.8L29.3,1l28.5,63.2l0,0l0,0
		L44.1,64.3L44.1,64.3L44.1,64.3z M36.8,64.2H21.9l2.4-6h10.2L36.8,64.2L36.8,64.2z M32.3,52.8h-5.9l2.9-7.4L32.3,52.8L32.3,52.8z"
		/>
</g>
<path class="st1" d="M29.3,29.2l-14.8,35h29.6L29.3,29.2z M29.3,45.4l3,7.4h-5.9L29.3,45.4z M24.2,58.3h10.2l2.4,6h-15L24.2,58.3z"
	/>
</svg>
