<?xml version="1.0" encoding="utf-8"?>
<!-- Generator: Adobe Illustrator 25.0.1, SVG Export Plug-In . SVG Version: 6.00 Build 0)  -->
<svg version="1.1" id="Layer_1" xmlns="http://www.w3.org/2000/svg" xmlns:xlink="http://www.w3.org/1999/xlink" x="0px" y="0px"
	 viewBox="0 0 96 95.8" style="enable-background:new 0 0 96 95.8;" xml:space="preserve">
<style type="text/css">
	.st0{fill:#FFE000;}
	.st1{fill:#004C93;}
</style>
<path class="st0" d="M47.7,40.7l-14.8,35h29.6L47.7,40.7z M47.7,56.9l3,7.4h-5.9L47.7,56.9z M42.6,69.8h10.2l2.4,6h-15L42.6,69.8z"
	/>
<circle class="st0" cx="47.2" cy="49.3" r="43.9"/>
<g id="A" transform="translate(0 0)">
	<path id="Exclusion_3" class="st1" d="M62,75.3h-7.3l0,0H62L47.2,40.2l-14.8,35h7.3l0,0h-7.3l0,0H18.7L47.2,12l28.5,63.2l0,0l0,0
		L62,75.3L62,75.3L62,75.3z M54.7,75.2H39.8l2.4-6h10.2L54.7,75.2L54.7,75.2z M50.2,63.8h-5.9l2.9-7.4L50.2,63.8L50.2,63.8z"/>
</g>
</svg>
