<?xml version="1.0" encoding="utf-8"?>
<!-- Generator: Adobe Illustrator 26.5.0, SVG Export Plug-In . SVG Version: 6.00 Build 0)  -->
<svg version="1.1" id="Layer_1" xmlns="http://www.w3.org/2000/svg" xmlns:xlink="http://www.w3.org/1999/xlink" x="0px" y="0px"
	 viewBox="0 0 96 95.8" style="enable-background:new 0 0 96 95.8;" xml:space="preserve">
<style type="text/css">
	.st0{fill:#FFE000;}
	.st1{fill:#F67718;}
	.st2{fill:#FFFFFF;}
</style>
<path class="st0" d="M47.7,40.7l-14.8,35h29.6L47.7,40.7z M47.7,56.9l3,7.4h-5.9L47.7,56.9z M42.6,69.8h10.2l2.4,6h-15L42.6,69.8z"
	/>
<circle class="st1" cx="47.2" cy="49.3" r="43.9"/>
<g id="Group_248">
	<path id="Path_390" class="st2" d="M51.2,62.9c1.6-1.8,3.2-3.6,4.7-5.5c0.2-0.2,0.4-0.4,0.6-0.5c0.8-0.3,1.7,0,2.1,0.8
		c0.7,1.4,1.3,2.8,1.9,4.2c-1.5,1.8-3,3.6-4.6,5.3L51.2,62.9z"/>
	<path id="Path_391" class="st2" d="M58.2,48.2l3,1.2c-0.5,1.1-1,2.2-1.6,3.2c-0.3,0.4-0.4,0.9-0.4,1.5c0,0.5,0.1,1.1,0.3,1.5
		c0.8,1.7,1.5,3.4,2.1,5.2c0.5-0.7,1-1.3,1.5-2c0.5-0.7,1-1.5,1.4-2.2c0.9-1.5,1.7-3.1,2.4-4.7l2.9,1.3l-4.3-8.7L58.2,48.2"/>
	<path id="Path_392" class="st2" d="M61.5,41.5c-0.3-2-1-4-2.1-5.7c-0.1-0.2-0.2-0.4-0.2-0.7c0-0.8,0.6-1.5,1.5-1.7
		c1.5-0.3,3-0.3,4.6-0.3c1.3,2.3,2.1,4.8,2.5,7.3L61.5,41.5z"/>
	<path id="Path_393" class="st2" d="M51.9,32.7l1.4-2.9c1,0.5,1.9,1.1,2.8,1.8c0.4,0.3,0.8,0.5,1.3,0.6c0.5,0.1,1,0.1,1.5,0
		c1.8-0.5,3.7-0.7,5.6-0.6c-2.1-3.1-4.9-5.7-8.3-7.4l1.5-2.8l-9,3.8C48.6,25.1,50.8,30.2,51.9,32.7"/>
	<path id="Path_394" class="st2" d="M44.7,29.1c-2,0.2-4,0.7-5.8,1.7c-0.2,0.1-0.4,0.2-0.7,0.1c-0.8-0.1-1.5-0.7-1.6-1.6
		c-0.2-1.5-0.2-3.1,0-4.6c2.4-1.1,4.9-1.8,7.5-2L44.7,29.1z"/>
	<path id="Path_395" class="st2" d="M35.4,38.1l-2.8-1.5c0.6-1,1.2-1.9,2-2.7c0.3-0.4,0.5-0.8,0.6-1.2c0.1-0.5,0.1-1,0-1.5
		c-0.4-1.9-0.5-3.8-0.3-5.6c-3.2,1.9-5.9,4.6-7.8,7.8l-2.7-1.7l3.2,9.2L35.4,38.1"/>
	<path id="Path_396" class="st2" d="M31.1,44.3c0.1,2,0.6,4,1.4,5.9c0.1,0.2,0.1,0.5,0.1,0.7c-0.1,0.8-0.8,1.5-1.7,1.4
		c-1.5,0-3.1-0.1-4.6-0.4c-1-2.4-1.6-5-1.6-7.6L31.1,44.3z"/>
	<path id="Path_397" class="st2" d="M40,56.7l-2.5,1.9c-0.8-1-1.5-2.1-2.2-3.2c-0.3-0.4-0.7-0.8-1.1-1c-0.5-0.2-1-0.4-1.5-0.4
		c-1.9,0-3.8-0.2-5.6-0.4c0.7,1.6,1.6,3.1,2.5,4.6c0.9,1.5,1.9,2.8,2.9,4.1l-2.6,1.9l9.1,1.3L40,56.7"/>
	<path id="Path_398" class="st2" d="M46.5,77.2l-2.1-1.8c-2-1.8-3.8-3.5-5.8-5.6l4.6-4.3c1.1,1.2,2.2,2.3,3.3,3.3
		c0.4-0.5,0.9-0.9,1.3-1.4c0.5-0.6,1.1-1.2,1.7-1.9l4.6,4.3c-0.6,0.6-1.1,1.2-1.6,1.8c-1.2,1.4-2.5,2.7-3.9,3.9L46.5,77.2z"/>
</g>
</svg>
