<svg xmlns="http://www.w3.org/2000/svg" width="1920.431" height="684.278" viewBox="0 0 1920.431 684.278">
  <g id="dorsys-ornament" transform="translate(0.275 -748.577)">
    <g id="Group_24" data-name="Group 24" transform="translate(-26.276 1441.156) rotate(-90)">
      <path id="Subtraction_1" data-name="Subtraction 1" d="M-1778.421-2487.569h0l-202.061-88.538V-2578h65.568l90.358,31.876V-2578h46.135v90.429Zm-311.278-14.373h0V-2578h46.111v27.3l57.031-15.252,39.767,18.025-142.91,45.987Z" transform="translate(2471 2604)" fill="#e9daff"/>
    </g>
    <g id="Group_633" data-name="Group 633" transform="translate(1946.156 740.275) rotate(90)">
      <path id="Subtraction_1-2" data-name="Subtraction 1" d="M-1778.421-2487.569h0l-202.061-88.538V-2578h65.568l90.358,31.876V-2578h46.135v90.429Zm-311.278-14.373h0V-2578h46.111v27.3l57.031-15.252,39.767,18.025-142.91,45.987Z" transform="translate(2471 2604)" fill="#e9daff"/>
    </g>
  </g>
</svg>
