<?xml version="1.0" encoding="UTF-8" standalone="no"?>
<!DOCTYPE svg PUBLIC "-//W3C//DTD SVG 1.1//EN" "http://www.w3.org/Graphics/SVG/1.1/DTD/svg11.dtd">
<svg width="100%" height="100%" viewBox="0 0 112 112" version="1.1" xmlns="http://www.w3.org/2000/svg" xmlns:xlink="http://www.w3.org/1999/xlink" xml:space="preserve" xmlns:serif="http://www.serif.com/" style="fill-rule:evenodd;clip-rule:evenodd;stroke-linejoin:round;stroke-miterlimit:2;">
    <g id="homepage">
        <g id="icon-gekon">
            <path id="Fill-11-Copy" d="M90,36.189C88.739,32.708 86.823,29.655 84.689,27.098C84.424,26.777 84.161,26.457 83.9,26.14C83.61,25.849 83.323,25.559 83.037,25.271C82.753,24.985 82.47,24.701 82.19,24.42C82.048,24.28 81.913,24.137 81.769,24.003L81.316,23.626C80.717,23.129 80.128,22.641 79.549,22.161C78.93,21.738 78.323,21.322 77.728,20.916C77.148,20.49 76.523,20.163 75.919,19.835C75.31,19.517 74.744,19.159 74.145,18.9C73.546,18.644 72.962,18.395 72.395,18.152C72.11,18.037 71.839,17.9 71.554,17.809C71.269,17.719 70.989,17.63 70.712,17.543C70.162,17.37 69.629,17.202 69.115,17.04C68.603,16.875 68.082,16.807 67.599,16.693C67.112,16.592 66.645,16.494 66.199,16.401C65.759,16.291 65.313,16.289 64.906,16.231C64.084,16.15 63.356,16.054 62.723,16.013C62.089,16.011 61.55,16.008 61.112,16.006C60.238,16.002 59.771,16 59.771,16C59.771,16 60.236,16.045 61.106,16.129C61.542,16.171 62.078,16.223 62.71,16.284C63.335,16.382 64.042,16.543 64.834,16.696C65.228,16.789 65.65,16.827 66.075,16.976C66.502,17.107 66.948,17.244 67.414,17.387C67.874,17.542 68.369,17.65 68.851,17.858C69.334,18.06 69.834,18.27 70.35,18.486C70.607,18.594 70.868,18.703 71.134,18.814C71.398,18.926 71.648,19.084 71.911,19.219C72.431,19.5 72.966,19.789 73.515,20.085C74.062,20.383 74.571,20.778 75.119,21.13C75.661,21.493 76.221,21.851 76.731,22.306C77.254,22.739 77.787,23.179 78.331,23.629C78.829,24.126 79.336,24.633 79.852,25.148L80.24,25.534C80.362,25.671 80.475,25.816 80.594,25.958C80.829,26.243 81.066,26.529 81.304,26.818C81.543,27.106 81.783,27.396 82.025,27.688C82.237,28.001 82.451,28.318 82.667,28.636C84.404,31.157 85.874,34.068 86.703,37.261C87.559,40.432 87.858,43.866 87.548,47.217C87.456,48.124 87.399,49.089 87.191,49.839L86.941,51.036C86.897,51.236 86.865,51.433 86.814,51.634L86.622,52.244L86.242,53.463C86.12,53.87 86,54.277 85.815,54.663L85.316,55.835C85.143,56.221 85.011,56.625 84.787,56.988C83.274,60.018 81.199,62.732 78.763,64.929C76.325,67.125 73.545,68.802 70.697,69.915C69.094,70.544 67.474,70.989 65.873,71.286L58.17,63.196L62.355,59.615C62.708,60.081 63.221,60.428 63.841,60.544C65.164,60.793 66.438,59.925 66.688,58.604C66.697,58.554 66.694,58.506 66.701,58.457C67.025,58.474 67.359,58.488 67.697,58.492C68.119,58.502 68.542,58.492 68.937,58.48C69.311,58.469 69.658,58.445 69.962,58.422C70.098,58.882 70.52,59.218 71.024,59.215C71.634,59.211 72.125,58.714 72.121,58.105C72.117,57.496 71.619,57.005 71.009,57.009C70.505,57.013 70.087,57.355 69.958,57.816C69.653,57.798 69.306,57.778 68.932,57.772C68.537,57.766 68.114,57.761 67.692,57.777C67.355,57.786 67.021,57.804 66.697,57.826C66.649,57.475 66.531,57.143 66.345,56.851C66.602,56.658 66.863,56.456 67.122,56.244C67.452,55.981 67.769,55.703 68.064,55.44C68.343,55.191 68.594,54.95 68.812,54.738C69.212,55.003 69.752,54.989 70.136,54.663C70.6,54.268 70.657,53.572 70.262,53.108C69.867,52.644 69.169,52.588 68.705,52.983C68.321,53.309 68.221,53.839 68.419,54.276C68.173,54.457 67.895,54.665 67.605,54.9C67.297,55.149 66.971,55.417 66.658,55.7C66.409,55.92 66.169,56.144 65.938,56.366C65.678,56.127 65.362,55.947 65.007,55.838C65.079,55.529 65.148,55.211 65.21,54.887C65.293,54.474 65.356,54.057 65.414,53.666C65.467,53.296 65.504,52.951 65.534,52.648C66.011,52.595 66.416,52.237 66.501,51.741C66.602,51.141 66.197,50.571 65.596,50.47C64.995,50.368 64.425,50.772 64.323,51.373C64.238,51.869 64.503,52.339 64.936,52.547C64.865,52.843 64.785,53.181 64.714,53.548C64.639,53.936 64.562,54.35 64.504,54.768C64.456,55.093 64.416,55.415 64.382,55.73C64.026,55.717 63.68,55.775 63.365,55.906C63.224,55.629 63.075,55.348 62.918,55.067C62.716,54.697 62.496,54.337 62.288,54.001C62.092,53.683 61.897,53.396 61.726,53.144C62.056,52.797 62.137,52.263 61.882,51.829C61.573,51.304 60.897,51.127 60.37,51.435C59.845,51.743 59.668,52.419 59.976,52.945C60.231,53.379 60.737,53.569 61.202,53.45C61.338,53.723 61.495,54.033 61.676,54.359C61.869,54.705 62.076,55.072 62.301,55.429C62.469,55.703 62.643,55.97 62.816,56.228C62.534,56.444 62.303,56.72 62.136,57.043C61.851,56.922 61.557,56.802 61.257,56.689C60.863,56.535 60.463,56.4 60.088,56.276C59.733,56.159 59.399,56.063 59.105,55.981C59.135,55.502 58.853,55.042 58.378,54.873C57.804,54.669 57.172,54.968 56.967,55.542C56.762,56.115 57.062,56.746 57.637,56.951C58.111,57.12 58.621,56.941 58.901,56.552C59.181,56.673 59.5,56.81 59.849,56.943C60.219,57.084 60.614,57.233 61.017,57.362C61.319,57.463 61.62,57.555 61.916,57.641C61.911,57.662 61.902,57.68 61.898,57.701C61.841,58.001 61.849,58.296 61.9,58.579L54.522,61.471C54.436,61.505 54.344,61.55 54.262,61.601C53.513,62.065 53.282,63.049 53.748,63.798L54.005,64.212L58.618,71.629L58.592,71.627C58.399,71.614 58.207,71.601 58.077,71.575C56.955,71.432 55.661,71.189 54.535,70.892C52.247,70.282 50.266,69.4 48.615,68.472C46.963,67.539 45.645,66.541 44.627,65.658C44.105,65.232 43.689,64.793 43.306,64.441C43.149,64.272 43.003,64.123 42.865,63.98L47.166,62.657L47.391,62.588C47.682,62.498 47.913,62.251 47.969,61.931L48.766,57.316C48.815,57.319 48.862,57.331 48.913,57.331C50.198,57.331 51.24,56.29 51.24,55.006C51.24,54.947 51.227,54.891 51.223,54.832C51.345,54.813 51.467,54.794 51.59,54.773C52.226,54.668 52.851,54.517 53.328,54.39C53.5,54.725 53.875,54.923 54.263,54.847C54.734,54.755 55.04,54.3 54.948,53.831C54.856,53.361 54.4,53.055 53.93,53.147C53.542,53.223 53.269,53.548 53.236,53.923C52.747,53.984 52.111,54.08 51.482,54.222C51.361,54.248 51.24,54.277 51.121,54.305C51.011,53.96 50.83,53.647 50.584,53.393C50.662,53.303 50.741,53.214 50.818,53.122C51.238,52.633 51.62,52.116 51.903,51.713C52.25,51.859 52.665,51.77 52.914,51.463C53.215,51.09 53.157,50.545 52.784,50.244C52.412,49.944 51.865,50.002 51.564,50.374C51.315,50.681 51.316,51.105 51.532,51.414C51.197,51.775 50.771,52.256 50.381,52.769C50.308,52.863 50.237,52.958 50.166,53.053C49.865,52.859 49.515,52.741 49.139,52.705C49.141,52.587 49.144,52.47 49.144,52.352C49.151,51.708 49.111,51.068 49.068,50.577C49.429,50.466 49.689,50.131 49.682,49.736C49.673,49.258 49.277,48.877 48.798,48.886C48.319,48.895 47.938,49.29 47.947,49.768C47.954,50.164 48.227,50.488 48.592,50.585C48.567,51.078 48.551,51.719 48.582,52.363C48.587,52.48 48.593,52.597 48.6,52.713C48.238,52.762 47.899,52.884 47.61,53.08C47.541,52.994 47.472,52.909 47.401,52.825C46.992,52.327 46.549,51.862 46.2,51.513C46.405,51.197 46.389,50.773 46.129,50.475C45.814,50.115 45.266,50.077 44.905,50.391C44.544,50.706 44.506,51.253 44.821,51.614C45.081,51.912 45.499,51.985 45.841,51.826C46.139,52.218 46.54,52.72 46.978,53.193C47.053,53.276 47.129,53.356 47.205,53.437C46.961,53.702 46.782,54.023 46.681,54.38C46.573,54.359 46.465,54.337 46.355,54.318C45.721,54.199 45.083,54.128 44.591,54.084C44.545,53.71 44.26,53.396 43.869,53.335C43.395,53.26 42.951,53.583 42.877,54.056C42.802,54.529 43.126,54.972 43.599,55.046C43.99,55.108 44.358,54.896 44.517,54.554C44.998,54.663 45.628,54.791 46.268,54.872C46.377,54.887 46.486,54.9 46.594,54.913C46.593,54.944 46.585,54.974 46.585,55.006C46.585,55.944 47.144,56.747 47.944,57.114L46.222,60.594L40.234,61.406C38.821,60.555 37.116,60.4 35.597,60.929C35.508,60.818 35.413,60.708 35.321,60.598C35.317,60.366 35.313,60.135 35.299,59.888C35.26,59.208 35.175,58.483 35.045,57.733C34.782,56.234 34.286,54.686 33.542,53.252C33.169,52.536 32.742,51.839 32.247,51.196C31.755,50.55 31.213,49.938 30.618,49.382C29.43,48.268 28.057,47.348 26.575,46.692C25.097,46.032 23.522,45.622 22.01,45.442C21.254,45.351 20.526,45.306 19.845,45.303C19.163,45.302 18.539,45.331 17.996,45.386C17.468,45.425 16.987,45.526 16.688,45.564C16.538,45.583 16.404,45.618 16.321,45.634C16.236,45.652 16.192,45.661 16.192,45.661C16.192,45.661 16.185,45.706 16.171,45.792C16.16,45.875 16.132,46.011 16.121,46.162C16.1,46.462 16.026,46.947 16.015,47.476C15.99,48.02 15.995,48.643 16.034,49.324C16.075,50.003 16.16,50.726 16.292,51.475C16.556,52.972 17.052,54.52 17.794,55.958C18.531,57.399 19.526,58.717 20.705,59.84C21.294,60.403 21.936,60.91 22.609,61.365C23.28,61.823 23.999,62.21 24.736,62.543C26.211,63.206 27.787,63.615 29.299,63.795C30.057,63.884 30.786,63.928 31.468,63.93C31.594,63.93 31.707,63.924 31.829,63.922C31.971,64.019 32.115,64.107 32.258,64.198C31.523,66.185 31.981,68.504 33.611,70.062C33.611,70.062 33.687,70.134 33.827,70.267L34.244,76.685L29.72,74.957C29.745,74.821 29.763,74.681 29.763,74.537C29.763,73.758 29.376,73.073 28.787,72.651C28.847,72.553 28.906,72.454 28.964,72.354C29.293,71.8 29.578,71.225 29.788,70.779C30.155,70.863 30.548,70.703 30.74,70.357C30.972,69.938 30.819,69.411 30.4,69.18C29.981,68.948 29.453,69.1 29.221,69.519C29.03,69.865 29.104,70.282 29.37,70.548C29.103,70.963 28.767,71.51 28.472,72.083C28.419,72.184 28.368,72.286 28.316,72.388C28.044,72.276 27.747,72.213 27.435,72.213C27.374,72.213 27.317,72.226 27.258,72.23C27.24,72.115 27.222,71.999 27.201,71.883C27.096,71.248 26.945,70.624 26.818,70.148C27.153,69.976 27.352,69.602 27.276,69.214C27.184,68.744 26.728,68.438 26.258,68.53C25.788,68.622 25.481,69.077 25.573,69.546C25.649,69.934 25.974,70.207 26.35,70.239C26.412,70.728 26.507,71.363 26.65,71.991C26.675,72.106 26.702,72.22 26.728,72.333C26.379,72.445 26.063,72.628 25.808,72.878C25.722,72.803 25.636,72.728 25.548,72.654C25.058,72.235 24.541,71.854 24.137,71.571C24.284,71.224 24.194,70.81 23.886,70.561C23.514,70.26 22.967,70.319 22.666,70.691C22.365,71.063 22.423,71.608 22.796,71.909C23.104,72.157 23.529,72.157 23.837,71.941C24.199,72.276 24.681,72.701 25.195,73.091C25.286,73.162 25.379,73.23 25.471,73.299C25.282,73.597 25.166,73.942 25.13,74.311C25.013,74.309 24.895,74.306 24.777,74.306C24.132,74.299 23.491,74.339 22.999,74.382C22.888,74.022 22.553,73.762 22.157,73.769C21.678,73.778 21.297,74.173 21.306,74.651C21.315,75.13 21.711,75.51 22.19,75.501C22.585,75.494 22.911,75.221 23.008,74.858C23.501,74.882 24.144,74.898 24.788,74.867C24.905,74.863 25.022,74.856 25.139,74.849C25.188,75.216 25.315,75.558 25.515,75.85C25.427,75.921 25.338,75.992 25.25,76.066C24.752,76.474 24.286,76.917 23.937,77.265C23.62,77.061 23.196,77.077 22.898,77.336C22.536,77.651 22.499,78.198 22.814,78.558C23.128,78.919 23.676,78.957 24.037,78.642C24.336,78.383 24.41,77.965 24.25,77.624C24.643,77.326 25.146,76.927 25.619,76.489C25.706,76.411 25.79,76.331 25.875,76.252C26.288,76.627 26.832,76.861 27.435,76.861C28.335,76.861 29.107,76.346 29.494,75.599L34.936,79.266C35.08,79.362 35.254,79.425 35.439,79.437C35.998,79.473 36.481,79.05 36.518,78.491L36.53,78.299L36.878,72.949C37.284,73.271 37.722,73.612 38.219,73.95C39.777,75.061 41.763,76.285 44.184,77.367C46.603,78.445 49.454,79.396 52.643,79.931C53.443,80.048 54.254,80.184 55.091,80.246C55.901,80.338 56.82,80.373 57.739,80.403C57.985,80.416 58.172,80.411 58.358,80.407L58.93,80.395L59.508,80.384L59.653,80.382C59.897,80.384 59.744,80.38 59.81,80.38L59.851,80.376L59.934,80.369L60.266,80.341C61.15,80.26 62.048,80.178 62.958,80.096C63.013,80.088 63.067,80.077 63.122,80.069L67.005,91.055L67.168,91.519C67.403,92.186 68.093,92.606 68.814,92.482L77.371,91.011C77.401,91.176 77.448,91.34 77.515,91.502C77.534,91.548 77.563,91.587 77.585,91.632C77.304,91.794 77.017,91.966 76.732,92.147C76.373,92.37 76.025,92.609 75.7,92.835C75.394,93.049 75.117,93.258 74.875,93.444C74.509,93.133 73.971,93.083 73.551,93.361C73.043,93.698 72.905,94.383 73.242,94.89C73.58,95.397 74.265,95.536 74.773,95.199C75.193,94.92 75.355,94.405 75.211,93.949C75.476,93.798 75.777,93.624 76.093,93.425C76.427,93.214 76.783,92.987 77.128,92.742C77.405,92.551 77.675,92.353 77.934,92.158C78.166,92.425 78.447,92.638 78.763,92.781C78.654,93.083 78.546,93.395 78.445,93.713C78.314,94.114 78.201,94.52 78.098,94.902C78.001,95.263 77.924,95.601 77.858,95.898C77.378,95.895 76.933,96.202 76.791,96.685C76.618,97.269 76.953,97.882 77.538,98.054C78.123,98.226 78.737,97.892 78.909,97.308C79.052,96.825 78.845,96.327 78.44,96.069C78.546,95.784 78.665,95.458 78.779,95.102C78.899,94.725 79.025,94.323 79.132,93.915C79.22,93.595 79.298,93.276 79.37,92.964C79.719,93.022 80.081,92.999 80.438,92.897C80.547,93.195 80.664,93.499 80.79,93.803C80.947,94.195 81.122,94.578 81.289,94.937C81.446,95.275 81.605,95.584 81.746,95.854C81.376,96.16 81.233,96.68 81.435,97.141C81.679,97.699 82.33,97.955 82.889,97.711C83.448,97.467 83.703,96.817 83.459,96.259C83.258,95.798 82.778,95.549 82.302,95.612C82.199,95.325 82.081,94.999 81.939,94.653C81.789,94.288 81.627,93.898 81.446,93.517C81.308,93.219 81.164,92.927 81.02,92.646C81.326,92.462 81.582,92.224 81.775,91.942C82.045,92.097 82.323,92.251 82.608,92.399C82.981,92.598 83.362,92.78 83.72,92.947C84.059,93.106 84.379,93.24 84.661,93.357C84.575,93.828 84.8,94.319 85.251,94.543C85.798,94.814 86.461,94.591 86.732,94.045C87.003,93.5 86.78,92.838 86.234,92.567C85.783,92.343 85.255,92.46 84.931,92.814C84.668,92.66 84.367,92.487 84.036,92.313C83.685,92.129 83.311,91.935 82.927,91.759C82.636,91.622 82.344,91.493 82.058,91.372C82.175,91.038 82.217,90.68 82.179,90.319C82.485,90.264 82.796,90.203 83.11,90.134C83.523,90.048 83.932,89.942 84.314,89.84C84.675,89.744 85.007,89.642 85.299,89.55C85.536,89.967 86.024,90.198 86.514,90.08C87.107,89.937 87.471,89.34 87.328,88.749C87.185,88.157 86.588,87.793 85.995,87.936C85.505,88.054 85.177,88.482 85.156,88.961C84.855,89.013 84.513,89.073 84.147,89.152C83.761,89.236 83.349,89.328 82.942,89.44C82.633,89.52 82.331,89.608 82.036,89.698C82.028,89.678 82.026,89.657 82.018,89.637C81.502,88.396 80.076,87.807 78.833,88.321C77.99,88.67 77.458,89.439 77.357,90.284L70.484,89.047L69.066,78.67C70.671,78.145 72.264,77.502 73.814,76.718C77.327,74.951 80.613,72.504 83.369,69.513C86.123,66.521 88.33,62.983 89.804,59.19C90.023,58.732 90.147,58.234 90.311,57.754L90.772,56.306C90.943,55.829 91.045,55.333 91.148,54.838L91.462,53.361L91.616,52.625C91.656,52.372 91.679,52.109 91.71,51.852L91.879,50.31C92.029,49.244 91.99,48.364 92,47.442C92,43.474 91.287,39.662 90,36.189" style="fill:rgb(149,191,13);"/>
        </g>
    </g>
</svg>
