<svg xmlns="http://www.w3.org/2000/svg" xmlns:xlink="http://www.w3.org/1999/xlink" width="78.92" height="78.92" viewBox="0 0 78.92 78.92">
  <defs>
    <filter id="Path_863" x="0" y="0" width="78.92" height="78.92" filterUnits="userSpaceOnUse">
      <feOffset dy="3" input="SourceAlpha"/>
      <feGaussianBlur stdDeviation="3" result="blur"/>
      <feFlood flood-opacity="0.161"/>
      <feComposite operator="in" in2="blur"/>
      <feComposite in="SourceGraphic"/>
    </filter>
  </defs>
  <g id="Jidelna-icon" transform="translate(-278.494 1.709)">
    <g id="Group_595" data-name="Group 595" transform="translate(283.296)">
      <g id="Path_3" data-name="Path 3" transform="translate(0 0)">
        <path id="Path_8" data-name="Path 8" d="M34.444,66.668a32.468,32.468,0,0,1-29.9-19.749A32.358,32.358,0,0,1,21.816,4.54,32.5,32.5,0,0,1,64.34,21.749a32.369,32.369,0,0,1-29.9,44.919Z" transform="translate(0.269 0.261)" fill="#fff"/>
        <path id="Path_9" data-name="Path 9" d="M34.713,4.523A30.038,30.038,0,1,0,62.519,46.3,30.1,30.1,0,0,0,34.713,4.523m0-4.523A34.6,34.6,0,1,1,0,34.6,34.655,34.655,0,0,1,34.713,0Z" transform="translate(0 0)" fill="#ffa100"/>
      </g>
      <g transform="matrix(1, 0, 0, 1, -4.8, -1.71)" filter="url(#Path_863)">
        <path id="Path_863-2" data-name="Path 863" d="M104.339,66.086A30.46,30.46,0,1,1,73.878,35.625a30.46,30.46,0,0,1,30.461,30.461Zm0,0" transform="translate(-34.42 -29.62)" fill="#fff"/>
      </g>
      <path id="Union_2" data-name="Union 2" d="M4586.3,117.191a7.377,7.377,0,0,1-4.3-6.713V95.4a1.4,1.4,0,0,1,1.451-1.4,1.33,1.33,0,0,1,.689.217,1.486,1.486,0,0,1,.671,1.245v11.733a1.585,1.585,0,0,0,2.7,1.126h0a1.581,1.581,0,0,0,.46-1.118V95.4a1.4,1.4,0,0,1,1.447-1.4,1.442,1.442,0,0,1,1.36,1.461v11.733a1.583,1.583,0,0,0,2.7,1.126h0a1.584,1.584,0,0,0,.459-1.118V95.462A1.444,1.444,0,0,1,4595.312,94a1.4,1.4,0,0,1,1.448,1.4v15.079h0a7.443,7.443,0,0,1-2.668,5.683h0a7.365,7.365,0,0,1-1.635,1.026v11.653c-.107.068-.216.129-.324.2a24.783,24.783,0,0,1-5.822,2.623Z" transform="translate(-4544.153 -73.425)" fill="#ffa100"/>
      <path id="Union_3" data-name="Union 3" d="M4586.389,127.451V115.057c-2.588-1.516-4.389-4.943-4.389-8.93,0-4.4,2.195-9.7,5.226-11.49l.042.025a3.977,3.977,0,0,1,4.351-.025c3.026,1.8,5.227,7.1,5.227,11.49a10.307,10.307,0,0,1-4.3,8.876v15.256a24.882,24.882,0,0,1-6.152-2.808Z" transform="translate(-4564.749 -72.021)" fill="#ffa100"/>
    </g>
  </g>
</svg>
