<svg xmlns="http://www.w3.org/2000/svg" width="258.135" height="72.256" viewBox="0 0 258.135 72.256">
  <g id="logo-dorsys" transform="translate(-1274.07 -733.143)">
    <g id="Group_614" data-name="Group 614" transform="translate(1274.07 733.143)">
      <path id="Path_1" data-name="Path 1" d="M2932.07,351.555v69.457l25.281-9.5L2949.6,408l-8.55,3.512V362.962l26.3,9.44v31.035l6.606,2.379V369.38Z" transform="translate(-2932.07 -351.555)" fill="#3d3d3d"/>
      <path id="Path_2" data-name="Path 2" d="M2954.671,421.012V351.555l-25.747,8.526,8.067,3.438,8.691-2.456V409.6l-25.551-9.438v-30.61l-6.706-2.394v35.52Z" transform="translate(-2894.016 -348.756)" fill="#a365ff"/>
    </g>
    <path id="Dorsys" d="M26.491,0h5.841V-42.6l-5.9,1.3v13.747a15.3,15.3,0,0,0-9.027-2.95A15.176,15.176,0,0,0,2.124-15.045,15.165,15.165,0,0,0,17.287.472a14.184,14.184,0,0,0,9.2-3.3ZM7.906-15.1A10.055,10.055,0,0,1,18.113-25.429a10.979,10.979,0,0,1,8.319,3.54V-8.26a10.822,10.822,0,0,1-8.319,3.6A10.154,10.154,0,0,1,7.906-15.1Zm31.211.059A15.476,15.476,0,0,0,54.752.59,15.426,15.426,0,0,0,70.328-15.045,15.413,15.413,0,0,0,54.752-30.621,15.463,15.463,0,0,0,39.117-15.045ZM54.752-4.6C49.206-4.6,44.9-9.2,44.9-15.045s4.366-10.384,9.853-10.384c5.428,0,9.794,4.543,9.794,10.384S60.18-4.6,54.752-4.6ZM77.113,0h5.9V-20.06c1.534-3.6,4.307-5.487,7.788-5.487a10.105,10.105,0,0,1,3.481.649v-5.31a7.5,7.5,0,0,0-3.009-.472,9.4,9.4,0,0,0-8.26,4.484v-3.835h-5.9ZM97.291-3.894C100.6-1,105.256.531,110.448.531c7.139,0,12.567-4.071,12.567-9.44,0-4.661-3.127-7.493-9.086-8.378l-5.428-.767c-3.54-.531-4.956-1.593-4.956-3.776,0-2.419,2.419-4.071,6.018-4.071a16.7,16.7,0,0,1,9.5,3.127l3.009-3.894a20.593,20.593,0,0,0-12.1-3.835c-7.021,0-11.741,3.658-11.741,9.086,0,4.661,3.009,7.434,8.968,8.319l5.428.767c3.3.472,4.838,1.711,4.838,3.835,0,2.655-2.95,4.484-7.2,4.484a15.738,15.738,0,0,1-9.794-3.776Zm38.35,6.726c-1.3,3.009-3.245,4.425-5.959,4.425a11.666,11.666,0,0,1-2.655-.236v5.192a11.406,11.406,0,0,0,3.127.354c5.546,0,8.732-2.537,11.505-8.968l14.514-33.63H149.8L140.125-7.08l-8.791-22.951h-6.49L136.821.118Zm22.538-6.726C161.483-1,166.144.531,171.336.531c7.139,0,12.567-4.071,12.567-9.44,0-4.661-3.127-7.493-9.086-8.378l-5.428-.767c-3.54-.531-4.956-1.593-4.956-3.776,0-2.419,2.419-4.071,6.018-4.071a16.7,16.7,0,0,1,9.5,3.127l3.009-3.894a20.593,20.593,0,0,0-12.1-3.835c-7.021,0-11.741,3.658-11.741,9.086,0,4.661,3.009,7.434,8.968,8.319l5.428.767c3.3.472,4.838,1.711,4.838,3.835,0,2.655-2.95,4.484-7.2,4.484a15.738,15.738,0,0,1-9.794-3.776Z" transform="translate(1348.302 789)" fill="#3d3d3d"/>
  </g>
</svg>
