<?xml version="1.0" encoding="utf-8"?>
<!-- Generator: Adobe Illustrator 24.1.1, SVG Export Plug-In . SVG Version: 6.00 Build 0)  -->
<svg version="1.1" id="Layer_1" xmlns="http://www.w3.org/2000/svg" xmlns:xlink="http://www.w3.org/1999/xlink" x="0px" y="0px"
	 viewBox="0 0 323.9 65.1" style="enable-background:new 0 0 323.9 65.1;" xml:space="preserve">
<style type="text/css">
	.st0{enable-background:new    ;}
	.st1{fill:#4A86D3;}
	.st2{fill:#F27202;}
</style>
<g>
	<g class="st0">
		<path class="st1" d="M17.3,59.5c-7.3,0-13-3.9-15.4-11l5.5-2.1c2,5.2,5.2,7.6,9.9,7.6c6,0,9.8-4.2,9.8-10.6V18.9h6v24.8
			C33.1,53.3,26.8,59.5,17.3,59.5z"/>
		<path class="st1" d="M52.1,17.3l-7.5,6.9h-4.8l5.4-7L52.1,17.3L52.1,17.3z M46.1,58.9h-5.7V29.7h5.7V58.9z"/>
		<path class="st1" d="M75.7,56.1c-2.5,2.1-5.6,3.2-9,3.2c-8.3,0-14.7-6.7-14.7-15s6.4-15,14.8-15c3.2,0,6.2,1,8.7,2.9V18.9l5.7-1.3
			v41.4h-5.7L75.7,56.1L75.7,56.1z M67.6,54.3c3.3,0,6.1-1.3,8.2-3.6V37.7c-2-2.1-4.9-3.6-8.2-3.6c-5.6,0-9.9,4.4-9.9,10
			S62,54.3,67.6,54.3z"/>
		<path class="st1" d="M102.7,59.5c-8.6,0-15.4-6.7-15.4-15s6.5-15,14.7-15c8,0,14.1,6.7,14.1,15.4v1.5H93c0.8,4.9,4.8,8.4,9.9,8.4
			c2.9,0,5.6-1,7.5-2.6l3.7,3.6C110.6,58.4,107,59.5,102.7,59.5z M93,41.7h17.3c-0.9-4.4-4.4-7.8-8.5-7.8C97.4,33.9,94,37.2,93,41.7
			z"/>
		<path class="st1" d="M127.8,58.9h-5.7V18.6l5.7-1.1V58.9z"/>
		<path class="st1" d="M135.2,29.7h5.7v2.9c2.4-2.4,5.4-3.6,8.7-3.6c6.7,0,11.4,4.7,11.4,11.4v18.4h-5.7V41.4c0-4.5-2.8-7.5-7.3-7.5
			c-3.1,0-5.6,1.3-7.3,3.8v21.1h-5.7L135.2,29.7L135.2,29.7z"/>
		<path class="st1" d="M166.7,50.4c0-5.5,4.4-9,11.8-9c2.8,0,5.5,0.6,7.9,1.6V40c0-4.2-2.5-6.1-7.2-6.1c-2.6,0-5.5,0.7-9.1,2.5
			l-2.1-4.4c4.4-2.1,8.2-3,11.9-3c7.6,0,11.9,3.7,11.9,10.6v19.4h-5.6v-2.5c-2.6,2.1-5.5,3-9.1,3C171.2,59.5,166.7,56,166.7,50.4z
			 M178.8,55.1c3.1,0,5.7-0.9,7.7-2.6v-5.1c-2.3-1.1-4.5-1.8-7.5-1.8c-4.2,0-6.7,2-6.7,4.8C172.1,53.3,175,55.1,178.8,55.1z"/>
	</g>
	<g class="st0">
		<path class="st2" d="M200.5,48c4.4,4.4,8.8,6.2,13.8,6.2c5.9,0,9.8-2.6,9.8-6.7c0-3.6-2.4-5.4-8.2-6.2l-6.7-1.1
			c-7.3-1.1-11-4.7-11-10.6c0-7,6-11.5,14.7-11.5c5.7,0,11.6,2,16.2,5.5l-3.3,4.5c-4.4-3.3-8.7-4.9-13.1-4.9c-5.3,0-8.7,2.5-8.7,6
			c0,3.3,2,4.8,7.2,5.7l6.5,1c8.5,1.3,12.3,4.9,12.3,11.1c0,7.5-6.5,12.3-16.1,12.3c-6.5,0-12.6-2.6-17.2-7.3L200.5,48z"/>
		<path class="st2" d="M269.9,53.9l4.2,5.1l-5.6,1.3l-2.6-3.3c-3.1,1.6-6.7,2.6-10.4,2.6c-11.7,0-20.9-9.2-20.9-20.9
			s9.2-20.9,20.9-20.9c11.7,0,20.9,9.2,20.9,20.9C276.2,44.8,273.8,50,269.9,53.9z M266.1,49.3c2.5-2.6,4.1-6.3,4.1-10.6
			c0-8.6-6.5-15-14.7-15c-8.2,0-14.8,6.5-14.8,15s6.5,15,14.7,15c2.5,0,4.7-0.5,6.7-1.4l-5.3-6.3l5.6-1.3L266.1,49.3z"/>
		<path class="st2" d="M283.1,18.9h6v35h23.1v5.4H283L283.1,18.9L283.1,18.9z"/>
	</g>
</g>
</svg>
