<?xml version="1.0" encoding="utf-8"?>
<!-- Generator: Adobe Illustrator 24.0.0, SVG Export Plug-In . SVG Version: 6.00 Build 0)  -->
<svg version="1.1" id="Layer_1" xmlns="http://www.w3.org/2000/svg" xmlns:xlink="http://www.w3.org/1999/xlink" x="0px" y="0px"
	 viewBox="0 0 217.7 62.3" style="enable-background:new 0 0 217.7 62.3;" xml:space="preserve">
<style type="text/css">
	.st0{fill:#3D3D3D;}
	.st1{fill:#A365FF;}
	.st2{enable-background:new    ;}
</style>
<g id="Group_623" transform="translate(-1274.07 -729)">
	<g id="Group_614_1_" transform="translate(0 3)">
		<path id="Path_1_1_" class="st0" d="M1280.9,728.9v53.4l19.4-7.3l-6-2.7l-6.6,2.7v-37.3l20.2,7.3v23.9l5.1,1.8v-28L1280.9,728.9z"
			/>
		<path id="Path_2_1_" class="st1" d="M1327.6,784.5V731l-19.8,6.6l6.2,2.6l6.7-1.9v37.3l-19.7-7.3v-23.5l-5.2-1.8v27.3
			L1327.6,784.5z"/>
	</g>
	<g class="st2">
		<path class="st0" d="M1359.1,774.1c-2,1.7-4.5,2.6-7.3,2.6c-6.8,0-12-5.4-12-12.3c0-6.9,5.3-12.3,12.1-12.3c2.6,0,5.1,0.8,7.2,2.3
			v-10.9l4.7-1v33.9h-4.6V774.1z M1352.4,772.7c2.7,0,5-1,6.6-2.9V759c-1.5-1.8-4-2.8-6.6-2.8c-4.6,0-8.1,3.5-8.1,8.2
			C1344.3,769.1,1347.8,772.7,1352.4,772.7z"/>
		<path class="st0" d="M1381.6,752.1c6.9,0,12.4,5.4,12.4,12.4c0,7-5.4,12.4-12.4,12.4c-6.9,0-12.4-5.4-12.4-12.4
			C1369.1,757.5,1374.6,752.1,1381.6,752.1z M1389.3,764.4c0-4.6-3.5-8.3-7.8-8.3c-4.4,0-7.8,3.6-7.8,8.3c0,4.6,3.4,8.3,7.8,8.3
			C1385.9,772.7,1389.3,769.1,1389.3,764.4z"/>
		<path class="st0" d="M1399.3,752.5h4.7v3c1.5-2.3,3.8-3.6,6.6-3.6c1,0,1.7,0.1,2.4,0.4v4.2c-0.9-0.3-1.8-0.5-2.8-0.5
			c-2.8,0-5,1.5-6.2,4.4v15.9h-4.7V752.5z"/>
		<path class="st0" d="M1417.9,770.2c2.5,2,5.1,3,7.8,3c3.4,0,5.7-1.5,5.7-3.6c0-1.7-1.2-2.7-3.8-3l-4.3-0.6
			c-4.7-0.7-7.1-2.9-7.1-6.6c0-4.3,3.8-7.2,9.3-7.2c3.5,0,6.6,1,9.6,3l-2.4,3.1c-2.6-1.7-5-2.5-7.5-2.5c-2.9,0-4.8,1.3-4.8,3.2
			c0,1.7,1.1,2.6,3.9,3l4.3,0.6c4.7,0.7,7.2,3,7.2,6.7c0,4.3-4.3,7.5-10,7.5c-4.1,0-7.8-1.2-10.5-3.5L1417.9,770.2z"/>
		<path class="st0" d="M1446.8,776.5l-9.5-24h5.2l7,18.2l7.7-18.2h5.1l-11.5,26.7c-2.2,5.1-4.7,7.1-9.1,7.1c-1,0-1.9-0.1-2.5-0.3
			V782c0.7,0.1,1.2,0.2,2.1,0.2c2.2,0,3.7-1.1,4.7-3.5L1446.8,776.5z"/>
		<path class="st0" d="M1466.3,770.2c2.5,2,5.1,3,7.8,3c3.4,0,5.7-1.5,5.7-3.6c0-1.7-1.2-2.7-3.8-3l-4.3-0.6
			c-4.7-0.7-7.1-2.9-7.1-6.6c0-4.3,3.8-7.2,9.3-7.2c3.5,0,6.6,1,9.6,3l-2.4,3.1c-2.6-1.7-5-2.5-7.5-2.5c-2.9,0-4.8,1.3-4.8,3.2
			c0,1.7,1.1,2.6,3.9,3l4.3,0.6c4.7,0.7,7.2,3,7.2,6.7c0,4.3-4.3,7.5-10,7.5c-4.1,0-7.8-1.2-10.5-3.5L1466.3,770.2z"/>
	</g>
</g>
</svg>
