<svg xmlns="http://www.w3.org/2000/svg" width="213.383" height="43.158" viewBox="0 0 213.383 43.158">
  <g id="logo-contyco-rubik" transform="translate(-26.839 -16.451)">
    <text id="CONTYCO" transform="translate(68.222 50.609)" fill="#1f313e" font-size="36" font-family="Rubik-SemiBold, Rubik" font-weight="600"><tspan x="0" y="0">CONTYCO</tspan></text>
    <g id="Group_248" data-name="Group 248">
      <path id="Path_390" data-name="Path 390" d="M46.666,47.221c1.218-1.305,2.385-2.661,3.484-4.072a1.1,1.1,0,0,1,.471-.361,1.194,1.194,0,0,1,1.532.615c.482,1.014.936,2.039,1.374,3.085-1.09,1.356-2.228,2.675-3.422,3.939Z" fill="#499c5e"/>
      <path id="Path_391" data-name="Path 391" d="M51.852,36.31l2.184.878a20.778,20.778,0,0,1-1.22,2.375,2.215,2.215,0,0,0-.3,1.08,2.376,2.376,0,0,0,.258,1.128c.592,1.227,1.083,2.531,1.573,3.842.374-.485.748-.975,1.129-1.5s.737-1.09,1.069-1.62a26.9,26.9,0,0,0,1.813-3.464l2.161.961-3.158-6.447L51.852,36.31" fill="#499c5e"/>
      <path id="Path_392" data-name="Path 392" d="M54.268,31.34a11.272,11.272,0,0,0-1.542-4.21.851.851,0,0,1-.14-.49,1.306,1.306,0,0,1,1.076-1.24,16.823,16.823,0,0,1,3.392-.216,16.281,16.281,0,0,1,1.861,5.43Z" fill="#f67718"/>
      <path id="Path_393" data-name="Path 393" d="M47.177,24.855l1.013-2.127a11.2,11.2,0,0,1,2.049,1.35,1.96,1.96,0,0,0,.931.41,2.572,2.572,0,0,0,1.118-.037A15.558,15.558,0,0,1,56.444,24a16.126,16.126,0,0,0-6.133-5.461l1.108-2.088-6.672,2.8s1.608,3.734,2.43,5.606" fill="#f67718"/>
      <path id="Path_394" data-name="Path 394" d="M41.824,22.176a10.865,10.865,0,0,0-4.268,1.238.928.928,0,0,1-.5.106,1.317,1.317,0,0,1-1.174-1.152,16.246,16.246,0,0,1,0-3.394,15.44,15.44,0,0,1,5.565-1.486Z" fill="#d81338"/>
      <path id="Path_395" data-name="Path 395" d="M34.957,28.843,32.9,27.7a11.665,11.665,0,0,1,1.48-1.979,2.062,2.062,0,0,0,.471-.912,2.66,2.66,0,0,0,.017-1.12,14.951,14.951,0,0,1-.21-4.175,16.268,16.268,0,0,0-5.8,5.8l-2.015-1.241L29.175,30.9l5.782-2.053" fill="#d81338"/>
      <path id="Path_396" data-name="Path 396" d="M31.766,33.414a11.31,11.31,0,0,0,1.069,4.367.966.966,0,0,1,.081.543,1.239,1.239,0,0,1-1.253,1.067,25.482,25.482,0,0,1-3.38-.269A15.444,15.444,0,0,1,27.066,33.5Z" fill="#1e7887"/>
      <path id="Path_397" data-name="Path 397" d="M38.331,42.6l-1.876,1.422c-.565-.77-1.124-1.575-1.639-2.351a2.253,2.253,0,0,0-.835-.734,2.457,2.457,0,0,0-1.127-.28,29.28,29.28,0,0,1-4.161-.326,31.617,31.617,0,0,0,1.844,3.4c.7,1.086,1.4,2.067,2.13,3.067l-1.916,1.385,6.709.933.873-6.517" fill="#1e7887"/>
      <path id="Path_398" data-name="Path 398" d="M43.162,57.83,41.64,56.47c-1.517-1.354-2.832-2.583-4.325-4.18L40.7,49.123c.85.91,1.626,1.679,2.439,2.441.322-.341.634-.69.966-1.06.392-.437.8-.89,1.27-1.39L48.746,52.3c-.429.454-.813.883-1.185,1.3a30.028,30.028,0,0,1-2.857,2.9Z" fill="#0d2330"/>
    </g>
  </g>
</svg>
