<?xml version="1.0" encoding="utf-8"?>
<!-- Generator: Adobe Illustrator 24.1.1, SVG Export Plug-In . SVG Version: 6.00 Build 0)  -->
<svg version="1.1" id="Layer_1" xmlns="http://www.w3.org/2000/svg" xmlns:xlink="http://www.w3.org/1999/xlink" x="0px" y="0px"
	 viewBox="0 0 289.6 65.2" style="enable-background:new 0 0 289.6 65.2;" xml:space="preserve">
<style type="text/css">
	.st0{fill:#009036;}
	.st1{fill:#8ABB2A;}
</style>
<g>
	<path class="st0" d="M84.8,59.1c-10.9,0-19.5-8.3-19.5-19c0-10.6,8.5-19,19.4-19c6.1,0,11.7,2.6,15.3,6.9l-5.3,4.8
		c-2.6-3.1-6-4.8-10-4.8c-6.6,0-11.6,5.1-11.6,12s5.1,12,11.7,12c5.2,0,9.3-3.2,10.2-7.7H84.1v-6.6h19.1V40
		C103.2,51.1,95.4,59.1,84.8,59.1z"/>
	<path class="st0" d="M108.9,21.8h28.2v6.6h-20.6v8.4h13.6v6.4h-13.6v8.7h20.9v6.6h-28.5L108.9,21.8L108.9,21.8z"/>
	<path class="st0" d="M143.3,21.8h7.6v16.5L167,21.8h9.3l-17.7,17.5l18.6,19.3H167l-16.1-17.3v17.2h-7.6L143.3,21.8L143.3,21.8z"/>
	<path class="st0" d="M194.1,59.1c-10.9,0-19.4-8.4-19.4-19s8.5-19,19.4-19s19.5,8.4,19.5,19C213.5,50.8,205,59.1,194.1,59.1z
		 M194.1,28.2c-6.6,0-11.6,5.1-11.6,12c0,6.8,5.1,12,11.6,12c6.6,0,11.7-5.2,11.7-12C205.7,33.4,200.7,28.2,194.1,28.2z"/>
	<path class="st0" d="M226.5,21.8l18.2,23.8V21.8h7.2v36.8h-6.7L226.4,34v24.5h-7.2V21.8H226.5L226.5,21.8z"/>
	<path id="Path_907" class="st1" d="M33.6,61.7c2.5,1.1,5.2,1.8,7.9,1.9l0.9,0.1h0.9h0.9c0.2,0,0.3,0,0.5,0h0.5l1.8-0.2l1.7-0.4
		c0.5-0.1,1.1-0.3,1.6-0.4c0.5-0.2,1-0.3,1.5-0.5l1.4-0.6c0.2-0.1,0.4-0.2,0.6-0.3l0.6-0.3l1.2-0.6c0.3-0.2,0.7-0.4,1-0.6l0.9-0.6
		c0.3-0.2,0.6-0.4,0.8-0.6c0.5-0.4,0.9-0.8,1.3-1.1l0.9-0.9l0.7-0.8l-0.8,0.6l-1,0.8c-0.4,0.3-0.9,0.6-1.4,1
		c-0.3,0.2-0.6,0.4-0.8,0.6l-1,0.3c-0.3,0.2-0.6,0.4-1.1,0.6l-1.2,0.5l-0.5,0.2c-0.2,0.1-0.4,0.2-0.6,0.2L51.4,61
		c-0.5,0.1-0.9,0.2-1.5,0.3c-0.5,0.1-1,0.2-1.5,0.3l-1.6,0.2h-1.7h-0.4c-0.2,0-0.3,0-0.4,0h-0.9h-0.9l-0.9-0.1
		c-2.4-0.4-4.8-1.2-7-2.4c-2.3-1.2-4.3-2.9-6-4.9c-0.5-0.5-0.9-1-1.3-1.6L26.7,52c-0.1-0.1-0.2-0.3-0.3-0.4L26.2,51l-0.5-0.9
		c-0.2-0.3-0.3-0.6-0.4-0.9l-0.4-0.8c-0.1-0.3-0.3-0.6-0.4-0.9c-0.9-2.4-1.3-5.1-1.2-7.7c0.1-3.8,1.3-7.5,3.4-10.7h8.7l-0.2,4.3
		c-1-0.1-2,0.6-2.1,1.7c0,0.5,0.1,0.9,0.3,1.3c0,0,0,0.1,0.1,0.1c-0.2,0.2-0.3,0.3-0.6,0.5c-0.2,0.3-0.4,0.5-0.7,0.7
		c-0.2,0.2-0.4,0.4-0.5,0.6c-0.4-0.2-0.9,0-1.2,0.3c-0.2,0.4,0,0.9,0.3,1.2c0.4,0.2,0.9,0,1.2-0.3c0.1-0.3,0.1-0.6,0-0.9
		c0.2-0.1,0.3-0.3,0.6-0.6c0.3-0.2,0.5-0.4,0.7-0.7c0.2-0.2,0.3-0.4,0.5-0.6c0.2,0.1,0.5,0.3,0.7,0.3c0,0.3,0,0.5-0.1,0.8
		c0,0.3,0,0.6,0,1c0,0.3,0,0.6,0,0.8c-0.4,0.1-0.7,0.6-0.6,1c0.1,0.4,0.6,0.7,1,0.6c0.4-0.1,0.7-0.6,0.6-1c0-0.3-0.3-0.5-0.6-0.6
		c0-0.3,0-0.5,0.1-0.8c0-0.3,0.1-0.6,0-0.9c0-0.3,0-0.5,0-0.8c0.3,0,0.6-0.1,0.8-0.3c0.1,0.2,0.3,0.4,0.4,0.6
		c0.2,0.3,0.4,0.6,0.6,0.8c0.2,0.3,0.3,0.4,0.5,0.6c-0.3,0.4-0.2,0.9,0.2,1.2s0.9,0.2,1.2-0.2s0.2-0.9-0.2-1.2
		c-0.2-0.2-0.6-0.3-0.8-0.1c-0.1-0.2-0.3-0.4-0.4-0.6c-0.2-0.3-0.4-0.5-0.6-0.8c-0.2-0.2-0.3-0.4-0.5-0.6c0.2-0.2,0.3-0.4,0.4-0.7
		c0.3,0.1,0.5,0.1,0.7,0.2c0.3,0.1,0.6,0.1,0.9,0.2c0.3,0,0.6,0.1,0.8,0.2c0,0.5,0.4,0.9,0.9,0.8c0.5,0,0.9-0.4,0.8-0.9
		c0-0.5-0.4-0.9-0.9-0.8c-0.3,0-0.6,0.2-0.7,0.4c-0.2-0.1-0.5-0.1-0.8-0.2c-0.3,0-0.6-0.2-0.9-0.3c-0.3-0.1-0.5-0.1-0.7-0.1
		c0-0.3,0-0.6-0.1-0.8c0.2-0.1,0.5-0.2,0.7-0.3c0.3-0.1,0.6-0.3,0.9-0.4c0.3-0.1,0.5-0.3,0.7-0.4c0.3,0.4,0.9,0.4,1.2,0.1
		c0.4-0.3,0.4-0.9,0.1-1.2c-0.3-0.4-0.9-0.4-1.2-0.1c-0.2,0.2-0.3,0.5-0.3,0.8c-0.2,0.1-0.5,0.2-0.7,0.3c-0.3,0.1-0.6,0.3-0.9,0.4
		c-0.2,0.1-0.4,0.3-0.6,0.3l0,0c-0.2-0.2-0.3-0.4-0.5-0.5l2.3-5.7c0-0.1,0-0.1,0.1-0.2c0.1-0.7-0.3-1.3-0.9-1.5l-0.2,0.1l-6.6-1.4
		l0,0c0.1-0.1,0.2-0.2,0.3-0.3c0.7-0.6,1.5-1.1,2.3-1.6c1.4-0.9,3-1.5,4.5-2c1.2-0.3,2.5-0.6,3.7-0.7c0.5-0.1,1-0.1,1.4-0.1
		c0.2,0,0.3,0,0.5,0l-1.5,3.2l-0.1,0.2c-0.1,0.2-0.1,0.5,0,0.7l2.2,3h-0.1c-0.7,0.7-0.7,1.9,0,2.6c0,0,0.1,0,0.1,0.1
		s-0.1,0.1-0.1,0.2c-0.3,0.4-0.5,0.9-0.7,1.2c-0.4-0.1-0.7,0.1-0.9,0.4c-0.1,0.4,0.1,0.7,0.4,0.9c0.4,0.1,0.7-0.1,0.9-0.4
		c0.1-0.2,0-0.5-0.1-0.6c0.2-0.3,0.5-0.7,0.8-1.2c0-0.1,0.1-0.2,0.1-0.3c0.3,0.1,0.6,0.2,0.8,0.2c0,0.1,0,0.2,0,0.3
		c0,0.5,0.1,1,0.2,1.4c-0.3,0.1-0.5,0.5-0.4,0.9c0.1,0.3,0.5,0.5,0.9,0.4c0.3-0.1,0.5-0.5,0.4-0.9c-0.1-0.2-0.3-0.4-0.5-0.4
		c0-0.4,0-0.9-0.2-1.4c0-0.1,0-0.2,0-0.3c0.3,0,0.6-0.2,0.7-0.4c0,0.1,0.1,0.1,0.2,0.2c0.3,0.3,0.8,0.7,1,0.9
		c-0.2,0.3,0,0.7,0.3,0.9s0.7,0,0.9-0.3s0-0.7-0.3-0.9c-0.2-0.1-0.4-0.1-0.6,0c-0.3-0.3-0.6-0.6-1-1c0-0.1-0.1-0.1-0.2-0.2
		c0.1-0.2,0.3-0.5,0.3-0.8c0.1,0,0.2,0,0.3,0c0.5,0,1,0,1.4,0c0.1,0.4,0.5,0.6,0.8,0.5c0.4-0.1,0.6-0.5,0.5-0.8
		c-0.1-0.4-0.5-0.6-0.8-0.5c-0.2,0-0.4,0.3-0.5,0.4c-0.4,0-0.9-0.1-1.4-0.1c-0.1,0-0.2,0-0.3,0c0-0.3-0.1-0.6-0.3-0.8
		c0.1,0,0.1-0.1,0.2-0.2c0.4-0.3,0.8-0.6,1.1-0.9c0.3,0.2,0.7,0.2,0.9-0.1c0.2-0.3,0.2-0.7-0.1-0.9c-0.3-0.2-0.7-0.2-0.9,0.1
		c-0.2,0.2-0.2,0.4-0.1,0.6c-0.3,0.2-0.7,0.5-1.1,0.8c-0.1,0-0.1,0.1-0.2,0.2c0,0,0,0,0-0.1c-0.5-0.5-1.2-0.6-1.9-0.3l-1-2.8
		l2.8-3.8c1.2-0.3,2.2-1.2,2.7-2.3c0.1,0,0.3,0,0.3,0c0.1,0.1,0.3,0.3,0.4,0.4c0.4,0.4,0.9,0.7,1.3,1c1,0.7,2.1,1.2,3.3,1.5
		c0.6,0.2,1.2,0.3,1.8,0.4c1.9,0.2,3.8,0,5.6-0.8c1.2-0.5,2.2-1.1,3.2-1.8c0.4-0.3,0.9-0.8,1.2-1.2c0.3-0.3,0.6-0.7,0.9-1.1
		c0.3-0.3,0.5-0.6,0.6-0.8c0-0.1,0.1-0.2,0.1-0.2V15v-0.1c0-0.1-0.1-0.1-0.2-0.2c-0.1-0.2-0.4-0.5-0.7-0.8c-0.3-0.3-0.7-0.7-1-1
		c-0.4-0.4-0.9-0.7-1.4-1c-1-0.7-2.1-1.2-3.3-1.5c-1.8-0.5-3.8-0.6-5.6-0.2c-0.6,0.1-1.2,0.3-1.8,0.6c-1.2,0.5-2.2,1.1-3.2,1.9
		c-0.4,0.3-0.9,0.8-1.2,1.2c-0.1,0-0.1,0.1-0.2,0.2c-0.1,0-0.3,0-0.4,0.1c-0.7-1.5-2.3-2.5-4-2.4h-0.2l-3.8-3.3L44,6.9
		c0.4,0.6,1.1,0.9,1.8,0.7c0,0.1,0,0.2,0,0.3c0.2,0.5,0.4,1,0.6,1.3c-0.3,0.2-0.4,0.6-0.2,0.9c0.2,0.3,0.6,0.4,0.9,0.2
		c0.3-0.2,0.4-0.6,0.2-0.9c-0.1-0.2-0.3-0.3-0.6-0.3c-0.1-0.4-0.2-0.9-0.4-1.3c0-0.1-0.1-0.2-0.1-0.3c0.2-0.1,0.4-0.3,0.6-0.4
		c0,0,0-0.1,0.1-0.1s0.1,0.1,0.2,0.1c0.4,0.3,0.9,0.5,1.2,0.7c-0.1,0.4,0.1,0.7,0.4,0.9c0.4,0.1,0.7-0.1,0.9-0.4
		c0.1-0.4-0.1-0.7-0.4-0.9c-0.2-0.1-0.5,0-0.6,0.1c-0.3-0.2-0.7-0.5-1.2-0.8c-0.1,0-0.2-0.1-0.2-0.1c0.1-0.3,0.2-0.6,0.2-0.8
		c0.1,0,0.2,0,0.3,0c0.5,0,1-0.1,1.4-0.2C49.2,5.9,49.6,6.1,50,6s0.5-0.5,0.4-0.9c-0.1-0.3-0.5-0.5-0.9-0.4
		c-0.2,0.1-0.4,0.3-0.4,0.5c-0.4,0-0.9,0-1.4,0.2c-0.1,0-0.2,0-0.3,0c0-0.3-0.2-0.6-0.4-0.7c0.1,0,0.1-0.1,0.2-0.2
		c0.3-0.3,0.7-0.8,0.9-1c0.3,0.2,0.7,0,0.9-0.3s0-0.7-0.3-0.9c-0.3-0.2-0.7,0-0.9,0.3c-0.1,0.2-0.1,0.4,0,0.6c-0.3,0.3-0.6,0.6-1,1
		c-0.1,0-0.1,0.1-0.2,0.2c-0.2,0-0.4-0.2-0.7-0.2c0-0.1,0-0.2,0-0.3c0-0.5,0-1,0-1.4c0.4-0.1,0.6-0.5,0.5-0.8
		c-0.1-0.4-0.5-0.6-0.8-0.5C45.2,1.3,45,1.7,45.1,2c0,0.2,0.3,0.4,0.4,0.5c0,0.4-0.1,0.9-0.1,1.4c0,0.1,0,0.2,0,0.3
		c-1,0.1-1.7,0.9-1.7,1.9c0,0.2,0,0.3,0.1,0.5l-5,1.1c-0.1,0-0.3,0.1-0.3,0.2c-0.3,0.3-0.3,0.8,0,1.1l0.1,0.1l2.8,3.1
		c-0.4,0-0.8,0.1-1.3,0.2c-1.8,0.3-3.5,0.9-5.1,1.5c-2.1,0.9-4.2,2-6,3.3c-0.5,0.4-1,0.8-1.5,1.2c-0.5,0.4-1,0.9-1.5,1.4
		c-0.1,0.1-0.2,0.3-0.3,0.3l-0.2,0.3l-0.3,0.4v0.1c-0.1,0.1-0.1,0-0.1,0.1l0,0v0.1l-0.2,0.2L23.6,23v0.1l-8.4-3.9l-0.4-0.1
		c-0.5-0.3-1.1,0-1.4,0.4l-3.7,5.6c-0.1,0-0.2-0.1-0.3-0.2H9.3c0.1-0.3,0.1-0.5,0.2-0.8c0-0.3,0.1-0.6,0.2-0.9
		c0-0.3,0.1-0.6,0.1-0.8c0.5,0,0.8-0.5,0.8-0.9c0-0.5-0.5-0.8-0.9-0.8c-0.5,0-0.8,0.5-0.8,0.9c0,0.3,0.2,0.6,0.5,0.7
		c-0.1,0.3-0.1,0.5-0.2,0.8c0,0.3-0.1,0.6-0.2,0.9c0,0.3-0.1,0.5-0.1,0.8c-0.3,0-0.6,0-0.8,0.1c-0.1-0.2-0.3-0.5-0.3-0.7
		c-0.1-0.3-0.3-0.6-0.5-0.9S7,22.8,6.9,22.7c0.3-0.3,0.3-0.9,0-1.2c-0.3-0.3-0.9-0.3-1.2,0c-0.3,0.3-0.3,0.9,0,1.2
		c0.2,0.2,0.5,0.3,0.8,0.2c0.1,0.2,0.2,0.5,0.4,0.7c0.1,0.3,0.3,0.6,0.5,0.9c0.1,0.2,0.3,0.4,0.4,0.6c-0.3,0.2-0.4,0.4-0.5,0.6
		c-0.2-0.1-0.5-0.2-0.7-0.3c-0.3-0.1-0.6-0.2-0.9-0.3C5.4,25,5.1,24.9,5,24.8c0-0.5-0.3-0.9-0.8-0.9s-0.9,0.3-0.9,0.8
		s0.3,0.9,0.8,0.9c0.3,0,0.6-0.1,0.7-0.3c-0.1,0.1,0.1,0.2,0.4,0.3s0.6,0.2,0.9,0.3c0.3,0.1,0.5,0.2,0.7,0.3c-0.1,0.3,0,0.6,0,0.8
		c-0.2,0.1-0.5,0.1-0.7,0.2c-0.3,0.1-0.6,0.2-0.9,0.4c-0.3,0.1-0.5,0.2-0.8,0.3c-0.2-0.4-0.8-0.5-1.2-0.2S2.7,28.5,3,28.9
		s0.8,0.5,1.2,0.2c0.3-0.2,0.4-0.5,0.3-0.8c0.2-0.1,0.5-0.1,0.8-0.2c0.3-0.1,0.6-0.2,0.9-0.3c0.3-0.1,0.5-0.2,0.7-0.3
		C7,27.8,7.2,28,7.4,28.1c-0.1,0.2-0.3,0.4-0.4,0.6c-0.2,0.3-0.3,0.6-0.5,0.8c-0.1,0.3-0.3,0.5-0.4,0.7c-0.4-0.1-0.9,0.1-1,0.6
		c-0.1,0.4,0.1,0.9,0.6,1c0.4,0.1,0.9-0.1,1-0.6c0-0.3,0-0.6-0.2-0.8c0.1-0.2,0.3-0.4,0.4-0.7c0.1-0.3,0.3-0.5,0.5-0.8
		c0.1-0.2,0.2-0.4,0.3-0.6l0,0c1,0.4,2.1-0.1,2.5-1.1c0.3-0.6,0.1-1.4-0.3-1.9l4.4-3.2l6.6,4.8c-2,4-2.8,8.4-2.6,12.9
		c0.2,3.2,1,6.3,2.4,9.2c0.1,0.3,0.3,0.7,0.5,1.1l0.6,1.1c0.2,0.3,0.4,0.7,0.6,1l0.6,0.9l0.3,0.5c0.1,0.2,0.3,0.3,0.3,0.5l0.8,0.9
		c0.5,0.6,1,1.1,1.5,1.6C28.3,58.8,30.8,60.5,33.6,61.7z"/>
</g>
</svg>
