<?xml version="1.0" encoding="utf-8"?>
<!-- Generator: Adobe Illustrator 24.1.1, SVG Export Plug-In . SVG Version: 6.00 Build 0)  -->
<svg version="1.1" id="Layer_1" xmlns="http://www.w3.org/2000/svg" xmlns:xlink="http://www.w3.org/1999/xlink" x="0px" y="0px"
	 viewBox="0 0 289.6 86.1" style="enable-background:new 0 0 289.6 86.1;" xml:space="preserve">
<style type="text/css">
	.st0{fill:#3D3D3D;}
	.st1{fill:#A365FF;}
</style>
<g id="logo-dorsys" transform="translate(-1274.07 -733.143)">
	<g id="Group_614" transform="translate(1274.07 733.143)">
		<path id="Path_1" class="st0" d="M38.6,20.5v60.8L60.8,73L54,69.9L46.5,73V30.5l23,8.3v27.2l5.8,2.1V36.1L38.6,20.5z"/>
		<path id="Path_2" class="st1" d="M91.8,83.8V22.9l-22.6,7.5l7.1,3l7.6-2.2v42.5l-22.4-8.3V38.7l-5.9-2.1v31.1L91.8,83.8z"/>
	</g>
	<path id="Dorsys" class="st0" d="M1400.9,802.5h5.1v-37.3l-5.2,1.1v12c-2.3-1.7-5.1-2.6-7.9-2.6c-7.3-0.1-13.3,5.9-13.4,13.2
		c0,0.1,0,0.2,0,0.3c-0.2,7.3,5.6,13.4,13,13.6c0.1,0,0.2,0,0.3,0c2.9,0,5.8-1,8.1-2.9L1400.9,802.5z M1384.7,789.3
		c-0.1-4.9,3.7-8.9,8.6-9c0.1,0,0.3,0,0.4,0c2.8-0.1,5.4,1.1,7.3,3.1v11.9c-1.9,2.1-4.5,3.2-7.3,3.2c-4.9,0-8.9-3.9-8.9-8.8
		C1384.6,789.5,1384.6,789.4,1384.7,789.3z M1412,789.4c-0.1,7.5,5.9,13.6,13.4,13.7c0.1,0,0.2,0,0.3,0c7.5,0.1,13.6-5.9,13.6-13.4
		c0-0.1,0-0.2,0-0.3c0.1-7.5-5.9-13.6-13.4-13.6c-0.1,0-0.2,0-0.3,0c-7.5-0.1-13.6,5.9-13.7,13.4C1412,789.2,1412,789.3,1412,789.4
		L1412,789.4z M1425.7,798.5c-4.9,0-8.6-4-8.6-9.1s3.8-9.1,8.6-9.1c4.8,0,8.6,4,8.6,9.1C1434.3,794.5,1430.4,798.5,1425.7,798.5z
		 M1445.3,802.5h5.2V785c1.3-3.2,3.8-4.8,6.8-4.8c1,0,2.1,0.2,3,0.6v-4.7c-0.8-0.3-1.7-0.5-2.6-0.4c-2.9-0.1-5.7,1.4-7.2,3.9v-3.4
		h-5.2V802.5z M1462.9,799.1c2.9,2.5,7,3.9,11.5,3.9c6.3,0,11-3.6,11-8.3c0-4.1-2.7-6.6-8-7.3l-4.8-0.7c-3.1-0.5-4.3-1.4-4.3-3.3
		c0-2.1,2.1-3.6,5.3-3.6c3,0,5.9,1,8.3,2.7l2.6-3.4c-3.1-2.2-6.8-3.4-10.6-3.4c-6.1,0-10.3,3.2-10.3,8c0,4.1,2.6,6.5,7.9,7.3
		l4.8,0.7c2.9,0.4,4.2,1.5,4.2,3.4c0,2.3-2.6,3.9-6.3,3.9c-3.2-0.1-6.2-1.3-8.6-3.3L1462.9,799.1z M1496.5,805
		c-1.1,2.6-2.8,3.9-5.2,3.9c-0.8,0-1.6,0-2.3-0.2v4.5c0.9,0.2,1.8,0.3,2.7,0.3c4.9,0,7.6-2.2,10.1-7.9l12.7-29.5h-5.6l-8.5,20.1
		l-7.7-20.1h-5.7l10.5,26.4L1496.5,805z M1516.3,799.1c2.9,2.5,7,3.9,11.5,3.9c6.3,0,11-3.6,11-8.3c0-4.1-2.7-6.6-8-7.3l-4.8-0.7
		c-3.1-0.5-4.3-1.4-4.3-3.3c0-2.1,2.1-3.6,5.3-3.6c3,0,5.9,1,8.3,2.7l2.6-3.4c-3.1-2.2-6.8-3.4-10.6-3.4c-6.1,0-10.3,3.2-10.3,8
		c0,4.1,2.6,6.5,7.9,7.3l4.8,0.7c2.9,0.4,4.2,1.5,4.2,3.4c0,2.3-2.6,3.9-6.3,3.9c-3.2-0.1-6.2-1.3-8.6-3.3L1516.3,799.1z"/>
</g>
</svg>
