<?xml version="1.0" encoding="utf-8"?>
<!-- Generator: Adobe Illustrator 24.0.0, SVG Export Plug-In . SVG Version: 6.00 Build 0)  -->
<svg version="1.1" id="Layer_1" xmlns="http://www.w3.org/2000/svg" xmlns:xlink="http://www.w3.org/1999/xlink" x="0px" y="0px"
	 viewBox="0 0 181.8 65.2" style="enable-background:new 0 0 181.8 65.2;" xml:space="preserve">
<style type="text/css">
	.st0{fill:#004C93;}
	.st1{fill:#FFE000;}
</style>
<g id="logo-altisima" transform="translate(0.774 1.216)">
	<g id="ltisima" transform="translate(67.085 40.136)">
		<path id="Path_909" class="st0" d="M-8.3,22.9V-5.2h6v28.1H-8.3z"/>
		<path id="Path_910" class="st0" d="M10,22.9c-3,0-6-0.5-6-6V7.6H0.4V2.9H4v-8h6v8h5.6v4.7H10v7.8c0,1.4,0.1,2.8,2.8,2.8h2.7v4.7
			C15.6,22.9,10,22.9,10,22.9z"/>
		<path id="Path_911" class="st0" d="M18.3,0.9V-4h6v4.8L18.3,0.9L18.3,0.9z M18.3,22.9v-20h6v20H18.3z"/>
		<path id="Path_912" class="st0" d="M27.6,9c0-3.5,2.3-6.1,6.3-6.1h12.6v4.7H35.1c-1.1,0-2,0.3-2,1.5s0.9,1.5,2,1.5h6.2
			c4,0,6.3,2.6,6.3,6.2c0,3.5-2.3,6.1-6.3,6.1H27.6v-4.7h12.5c1.1,0,2-0.3,2-1.5s-0.9-1.5-2-1.5h-6.3C29.9,15.1,27.6,12.5,27.6,9z"
			/>
		<path id="Path_913" class="st0" d="M50.9,0.9V-4h6v4.8L50.9,0.9L50.9,0.9z M50.9,22.9v-20h6v20H50.9z"/>
		<path id="Path_914" class="st0" d="M81,7.9h-3.2v15h-6v-15h-5.3v15h-6v-20h22.3c3.4-0.1,6.3,2.6,6.4,6c0,0,0,0.1,0,0.1v13.9h-6V10
			c0.1-1.1-0.7-2-1.8-2.1C81.2,7.9,81.1,7.9,81,7.9z"/>
		<path id="Path_915" class="st0" d="M92.9,2.9h11.4c3.2,0,7.2,1.7,7.2,7.4v12.7H97.8c-4.2,0-6.4-2.5-6.4-6.1c0-3.7,2.2-6.2,6.4-6.2
			h7.7c0-1.5-0.6-3-2.9-3h-9.7L92.9,2.9z M105.5,15.1h-6.1c-1,0-1.9,0.3-1.9,1.5c0,1.2,0.9,1.5,1.9,1.5h6.1V15.1z"/>
	</g>
	<g id="A" transform="translate(0 0)">
		<path id="Exclusion_3" class="st0" d="M43.3,63.1H36v0L43.3,63.1L28.5,28L13.7,63h7.3v0h-7.3v0H0L28.5-0.2L57,63l0,0l0,0
			L43.3,63.1L43.3,63.1L43.3,63.1z M36,63H21.1l2.4-6h10.2L36,63L36,63z M31.5,51.6h-5.9l2.9-7.4L31.5,51.6L31.5,51.6z"/>
	</g>
</g>
<path class="st1" d="M29.3,29.2L14.5,64.2l29.6,0L29.3,29.2z M29.3,45.4l3,7.4h-5.9L29.3,45.4z M24.2,58.3h10.2l2.4,6H21.8
	L24.2,58.3z"/>
</svg>
